<svg version="1.1" id="Layer_1" xmlns="http://www.w3.org/2000/svg" xmlns:xlink="http://www.w3.org/1999/xlink" x="0px" y="0px"
	 width="100%" viewBox="0 0 2494 1762" enable-background="new 0 0 2494 1762" xml:space="preserve">
<path fill="#000000" opacity="1.000000" stroke="none" 
	d="
M1354.000000,1764.000000 
	C902.719482,1764.000000 452.438934,1764.000000 2.079197,1764.000000 
	C2.079197,1176.788330 2.079197,589.576660 2.079197,2.182488 
	C833.114136,2.182488 1664.228394,2.182488 2495.671387,2.182488 
	C2495.671387,589.333191 2495.671387,1176.666626 2495.671387,1764.000000 
	C2115.575928,1764.000000 1735.287964,1764.000000 1354.000000,1764.000000 
M1406.888550,796.822449 
	C1398.119141,812.243530 1389.349731,827.664551 1380.028076,844.056763 
	C1391.620972,844.056763 1401.796143,844.056763 1413.710205,844.489624 
	C1418.472046,844.349976 1423.233887,844.210327 1429.757568,844.494751 
	C1435.185059,844.356445 1440.612671,844.218079 1447.607300,844.484924 
	C1452.456543,845.329407 1455.923706,843.717346 1457.972778,839.046143 
	C1459.294434,836.033569 1460.995239,833.187317 1463.575195,829.450745 
	C1475.828003,808.590820 1488.080811,787.730896 1501.428345,765.981323 
	C1516.564941,740.640564 1531.555786,715.210632 1546.961182,690.034302 
	C1550.038208,685.005493 1549.608032,681.311646 1546.816284,676.487183 
	C1534.359009,654.959839 1522.289307,633.208496 1509.992065,611.587952 
	C1506.894043,606.141113 1503.472168,600.878418 1499.913818,594.173340 
	C1487.468140,572.455688 1475.022339,550.738037 1462.206909,527.639587 
	C1460.094482,521.105286 1455.055420,521.734802 1448.166382,522.289185 
	C1443.430298,522.398743 1438.694092,522.508301 1432.212036,522.276306 
	C1427.464966,522.385437 1422.717896,522.494629 1416.129883,522.259888 
	C1404.585449,522.259888 1393.041016,522.259888 1381.161743,522.259888 
	C1381.436157,524.022339 1381.323608,525.113403 1381.767456,525.884399 
	C1393.045654,545.482666 1404.382080,565.047363 1415.925659,585.985474 
	C1421.033081,594.787170 1426.140381,603.588867 1431.668945,613.758850 
	C1435.990356,621.173706 1440.311768,628.588501 1444.952271,637.307556 
	C1449.194580,644.454224 1453.437012,651.600830 1457.943359,660.094727 
	C1461.344238,666.185425 1464.560547,672.389832 1468.215210,678.324219 
	C1470.415771,681.897339 1470.343384,684.868896 1468.243530,688.453674 
	C1464.391479,695.029907 1460.959961,701.852539 1456.321533,709.573669 
	C1451.464355,718.308044 1446.607178,727.042419 1440.568726,736.514893 
	C1435.721069,745.697998 1430.873413,754.881104 1424.982300,764.927124 
	C1419.303101,775.283325 1413.624023,785.639587 1406.888550,796.822449 
M1042.141479,727.576477 
	C1047.252319,735.834717 1052.363159,744.092957 1057.777954,753.737732 
	C1063.186890,762.503052 1068.595703,771.268311 1074.252441,781.405701 
	C1078.617432,788.422119 1082.982300,795.438538 1087.692749,803.833923 
	C1095.075317,815.910400 1102.457764,827.986816 1110.197754,841.537231 
	C1112.088379,845.459656 1115.731445,844.602051 1118.939941,844.604431 
	C1138.901001,844.619507 1158.862305,844.583984 1178.822876,844.465454 
	C1180.936890,844.452881 1183.046875,843.792603 1185.869263,843.311829 
	C1172.679077,819.957947 1159.990234,797.351929 1147.161865,774.825317 
	C1137.792847,758.373352 1128.239868,742.026184 1118.372803,724.250977 
	C1112.149048,713.135864 1106.296753,701.788391 1099.548584,691.001282 
	C1096.037598,685.388977 1096.404785,681.223206 1099.645630,675.687439 
	C1108.823730,660.009888 1117.341309,643.945679 1127.192749,627.229675 
	C1146.814331,592.793884 1166.383911,558.329590 1186.398193,522.613525 
	C1163.632080,522.613525 1142.802734,522.613525 1120.282715,522.287292 
	C1117.619873,522.254944 1114.940918,522.395020 1112.297852,522.149353 
	C1108.437866,521.790527 1105.929565,523.591492 1104.227173,526.761597 
	C1098.733521,536.992249 1093.298096,547.254028 1086.758301,558.396362 
	C1082.494019,566.247620 1078.229858,574.098938 1072.911133,582.814026 
	C1067.951904,591.874084 1062.992676,600.934082 1056.996826,610.870117 
	C1051.729980,620.436035 1046.463013,630.001892 1040.200928,640.444702 
	C1032.050049,654.769958 1023.899292,669.095154 1015.551575,683.766418 
	C1024.491577,698.148926 1033.207397,712.170776 1042.141479,727.576477 
M1176.140869,409.769684 
	C1162.082642,409.886383 1148.024414,410.003082 1132.122192,409.783051 
	C1116.075928,409.894684 1100.029785,410.006348 1082.139160,409.769104 
	C1065.916992,409.769104 1049.694824,409.769104 1033.309326,409.769104 
	C1030.807129,414.100891 1028.525879,418.049957 1025.521240,423.200989 
	C1013.024231,445.477509 1000.495361,467.736267 988.053833,490.043762 
	C985.150696,495.249054 982.544067,500.619812 978.730286,506.726257 
	C963.269897,534.488770 947.809570,562.251282 931.406799,591.048645 
	C912.963135,623.661987 894.519470,656.275269 876.145264,688.765808 
	C887.060364,707.965027 897.513733,726.507446 908.122131,744.960754 
	C916.014954,758.690247 924.108887,772.304077 932.322876,787.360229 
	C946.447510,812.195801 960.531921,837.054443 974.721130,861.853088 
	C978.994812,869.322266 983.559875,876.624695 988.199097,885.408447 
	C1003.893982,913.018494 1019.588867,940.628540 1034.994263,967.729248 
	C1043.437622,967.729248 1050.711304,967.729248 1059.830566,968.094910 
	C1080.545288,967.972534 1101.260132,967.850159 1123.823242,968.092590 
	C1141.209717,967.971191 1158.596313,967.849731 1177.830078,968.083679 
	C1193.215210,967.964783 1208.600464,967.845947 1225.811279,968.077087 
	C1233.370605,968.077087 1240.930054,968.077087 1249.253662,968.077087 
	C1255.495361,939.545532 1261.569336,911.780334 1268.254028,882.586609 
	C1268.713745,880.989441 1269.255493,879.410828 1269.621338,877.792480 
	C1299.227051,746.863220 1328.814941,615.929871 1358.430542,485.002899 
	C1359.373047,480.836456 1360.589355,476.731964 1361.764893,472.268738 
	C1367.445801,471.899323 1372.705200,471.557312 1379.813477,471.567841 
	C1398.996582,471.158356 1418.179321,470.736633 1437.362793,470.343170 
	C1452.901611,470.024475 1468.441162,469.739777 1485.354736,469.899597 
	C1487.451782,472.335388 1489.987915,474.515015 1491.580566,477.245056 
	C1519.430176,524.986206 1547.146484,572.805176 1574.946411,620.575195 
	C1578.428345,626.558228 1582.220947,632.360413 1586.122192,639.622925 
	C1593.253296,651.984070 1600.193359,664.461548 1607.610352,676.648743 
	C1610.552979,681.483948 1610.667358,685.375732 1607.787231,690.346619 
	C1599.470703,704.699829 1591.669434,719.351440 1582.509399,734.612610 
	C1554.441040,785.415161 1526.066895,836.053101 1498.553833,887.154602 
	C1492.831787,897.782471 1486.969727,905.125488 1472.164062,902.772400 
	C1449.846680,902.622253 1427.529419,902.415466 1405.211792,902.338074 
	C1383.042480,902.261230 1360.858887,901.675476 1338.648438,902.527344 
	C1338.648438,924.913574 1338.648438,946.062073 1338.648438,968.189514 
	C1342.911621,968.189514 1346.500610,968.190430 1350.089478,968.189331 
	C1372.077026,968.182495 1394.064941,968.228149 1416.052246,968.152100 
	C1435.365479,968.085266 1454.678345,967.881897 1475.838501,968.088562 
	C1489.803223,968.119324 1503.781128,967.801208 1517.726685,968.334351 
	C1524.287598,968.585144 1527.824341,966.365417 1531.040894,960.630310 
	C1549.739136,927.290771 1568.889160,894.204712 1587.840698,861.006897 
	C1589.476074,858.142151 1590.778564,855.087280 1593.296753,851.299377 
	C1624.037598,797.644897 1654.695801,743.942627 1685.643555,690.407776 
	C1688.835327,684.886353 1688.001099,680.913635 1684.966187,675.900940 
	C1655.348633,626.981812 1625.927002,577.943970 1596.416748,528.959717 
	C1595.230835,526.991272 1593.717163,525.220459 1592.043945,522.020752 
	C1570.719604,486.475800 1549.356812,450.953766 1528.127808,415.351868 
	C1525.897217,411.610962 1523.506592,409.406494 1518.787354,409.575287 
	C1507.198242,409.989807 1495.592896,409.957153 1482.143188,409.788910 
	C1468.583252,409.750732 1455.022949,409.639008 1441.463379,409.691406 
	C1420.307251,409.773163 1399.151489,409.966156 1376.145996,409.786255 
	C1351.622803,409.786255 1327.099609,409.786255 1303.037354,409.786255 
	C1301.202148,417.307373 1299.436768,423.658783 1298.114868,430.101257 
	C1288.189697,478.475006 1278.313232,526.858826 1268.507202,575.256897 
	C1264.949585,592.816040 1261.625610,610.422607 1257.546875,629.433594 
	C1256.999634,631.331848 1256.323853,633.203491 1255.924316,635.132263 
	C1247.401733,676.264221 1238.856689,717.391479 1230.435791,758.544189 
	C1226.248779,779.006348 1222.300415,799.517334 1217.646729,821.459412 
	C1213.058960,842.794312 1208.512573,864.138245 1203.857788,885.458557 
	C1202.493774,891.706665 1200.822021,897.887634 1199.208008,904.437439 
	C1190.612305,904.437439 1183.299072,904.437439 1174.139648,904.102783 
	C1156.748901,904.215088 1139.358276,904.327454 1120.123657,904.104614 
	C1106.826660,904.065002 1093.527832,903.891968 1080.233521,904.064819 
	C1076.093140,904.118713 1073.476807,902.881470 1071.465210,899.129272 
	C1068.662476,893.901184 1065.249634,889.000122 1061.838501,882.563416 
	C1040.990234,846.294067 1020.148438,810.021057 999.270264,773.768982 
	C998.462646,772.366699 997.307068,771.164734 996.032898,768.472900 
	C980.864441,741.990845 965.695984,715.508850 950.458496,688.906372 
	C954.029907,682.537537 957.451538,676.475342 960.836121,670.392517 
	C970.026245,653.875916 979.200684,637.350647 989.474243,619.943359 
	C1001.627502,598.617310 1013.893860,577.354309 1025.847534,555.916931 
	C1028.530762,551.104858 1030.120605,545.682983 1033.602173,540.231628 
	C1038.163208,532.989075 1042.930054,525.866699 1047.240356,518.477844 
	C1055.098022,505.007874 1062.684937,491.379944 1070.231323,478.088501 
	C1075.366821,477.761536 1079.665161,477.487854 1085.812988,477.575745 
	C1101.854858,477.454529 1117.896851,477.333344 1135.791870,477.578400 
	C1149.854980,477.460968 1163.918213,477.343506 1179.827271,477.583862 
	C1187.134033,477.610870 1194.441162,477.692169 1201.747437,477.649414 
	C1208.902222,477.607574 1216.056152,477.439331 1223.192993,477.326813 
	C1223.192993,454.202576 1223.192993,432.429169 1223.192993,410.104187 
	C1207.708008,410.104187 1192.847412,410.104187 1176.140869,409.769684 
M1391.608276,1202.774658 
	C1400.385376,1170.749023 1409.162354,1138.723389 1418.212769,1105.700562 
	C1406.983276,1105.700562 1396.884033,1105.700562 1385.877441,1105.700562 
	C1377.989502,1134.715576 1371.794922,1164.299194 1363.693848,1193.347534 
	C1362.938232,1193.305542 1362.182495,1193.263550 1361.426758,1193.221558 
	C1353.350586,1164.139404 1345.274414,1135.057129 1337.093506,1105.597900 
	C1328.421021,1105.597900 1320.285645,1105.597900 1311.759399,1105.597900 
	C1302.884155,1134.735840 1296.225342,1164.016479 1287.078857,1192.529053 
	C1286.245239,1192.479126 1285.411743,1192.429199 1284.578125,1192.379272 
	C1277.369751,1163.529297 1270.161377,1134.679321 1262.916382,1105.682617 
	C1251.993164,1105.682617 1241.891602,1105.682617 1230.437256,1105.682617 
	C1242.888672,1150.843872 1255.051880,1194.959351 1267.247192,1239.191406 
	C1279.444824,1239.191406 1290.634521,1239.191406 1302.515747,1239.191406 
	C1304.961548,1230.664795 1307.377441,1222.415527 1309.688232,1214.137207 
	C1312.016113,1205.797607 1314.081421,1197.381592 1316.554688,1189.086548 
	C1318.934937,1181.102783 1320.308350,1172.726074 1324.895874,1163.241211 
	C1332.396240,1190.086670 1339.272949,1214.700073 1346.117065,1239.196899 
	C1358.359863,1239.196899 1369.609985,1239.196899 1381.351685,1239.196899 
	C1384.670654,1227.360107 1387.899658,1215.844849 1391.608276,1202.774658 
M1017.803955,1142.986816 
	C1017.803955,1147.984863 1017.961365,1152.989258 1017.760132,1157.979248 
	C1017.554871,1163.068481 1018.774963,1168.351807 1016.240234,1174.569458 
	C1013.495789,1170.994751 1011.428772,1168.464844 1009.536072,1165.810791 
	C996.576111,1147.637329 983.726013,1129.384644 970.632996,1111.307861 
	C968.817993,1108.802002 966.054504,1105.704468 963.395508,1105.343018 
	C956.987915,1104.472168 950.381958,1105.060791 942.886353,1105.060791 
	C943.064209,1150.663574 942.580933,1194.796143 943.216736,1238.986816 
	C954.000427,1238.986816 963.497986,1238.986816 974.032898,1238.986816 
	C974.032898,1227.048584 973.877686,1215.790894 974.076965,1204.539551 
	C974.273071,1193.464966 973.186707,1182.317505 975.048096,1169.414917 
	C978.158997,1173.472900 980.204834,1175.982666 982.080383,1178.613892 
	C995.036499,1196.790161 1007.931580,1215.009766 1020.915405,1233.166260 
	C1022.978760,1236.051636 1024.510864,1239.718384 1029.062988,1239.659424 
	C1035.266113,1239.578979 1041.470947,1239.639404 1047.993408,1239.639404 
	C1047.993408,1194.222778 1047.993408,1150.079956 1047.993408,1105.576660 
	C1037.812622,1105.576660 1028.309326,1105.576660 1017.803894,1105.576660 
	C1017.803894,1117.792969 1017.803894,1129.393188 1017.803955,1142.986816 
M801.958923,1151.000000 
	C801.958923,1180.202881 801.958923,1209.405640 801.958923,1239.130737 
	C812.818054,1239.130737 822.291626,1239.130737 833.099365,1239.130737 
	C833.099365,1227.356445 832.902405,1216.100586 833.155273,1204.854614 
	C833.403564,1193.813232 832.037842,1182.666992 834.321777,1169.880615 
	C837.431091,1173.889771 839.493225,1176.366211 841.358521,1178.983154 
	C854.316345,1197.161743 867.156433,1215.425171 880.252686,1233.503174 
	C882.051270,1235.985840 884.879456,1238.986572 887.541382,1239.328247 
	C893.949219,1240.150513 900.541138,1239.537720 907.441406,1239.501709 
	C907.441406,1194.179932 907.441406,1150.291504 907.441406,1105.662598 
	C897.245544,1105.662598 887.470337,1105.662598 876.551453,1105.662598 
	C876.551453,1113.953979 876.551453,1121.531738 876.551453,1129.109497 
	C876.551453,1136.440918 876.804688,1143.783691 876.480286,1151.100708 
	C876.156433,1158.402222 877.949036,1165.944214 874.747009,1174.170776 
	C872.064819,1170.556274 870.047913,1167.932739 868.130066,1165.238647 
	C855.377258,1147.322876 842.745117,1129.319702 829.801147,1111.543457 
	C827.830444,1108.837036 824.667480,1105.775146 821.669861,1105.296997 
	C815.579163,1104.325195 809.224670,1105.006470 801.958923,1105.006470 
	C801.958923,1120.486328 801.958923,1134.743164 801.958923,1151.000000 
M1204.926025,1132.120361 
	C1184.892334,1105.562866 1153.625366,1095.632446 1123.362915,1106.215820 
	C1094.065186,1116.461792 1075.744263,1143.870483 1077.491577,1176.205200 
	C1079.036377,1204.795044 1093.237915,1225.700073 1119.624512,1236.589355 
	C1146.910034,1247.849487 1172.749512,1243.552124 1195.011353,1223.720459 
	C1219.794067,1201.643066 1224.807129,1162.211548 1204.926025,1132.120361 
M1566.704712,1144.514526 
	C1551.649170,1112.712891 1521.593262,1097.072388 1488.183105,1103.653442 
	C1458.477417,1109.504761 1437.010254,1132.434814 1432.606201,1163.017944 
	C1428.432495,1192.000122 1443.613525,1221.239014 1469.773438,1234.603149 
	C1496.351196,1248.180908 1529.671387,1243.802002 1550.522949,1223.202148 
	C1572.728027,1201.265015 1577.240479,1175.057617 1566.704712,1144.514526 
M1697.695068,1133.612183 
	C1690.292603,1117.057007 1677.769043,1106.520386 1659.610596,1105.457031 
	C1641.053589,1104.370483 1622.376831,1105.321167 1603.752686,1105.438477 
	C1603.205933,1105.441895 1602.663452,1106.103638 1601.618652,1106.784424 
	C1601.618652,1150.546387 1601.618652,1194.630737 1601.618652,1239.090576 
	C1611.819946,1239.090576 1621.298096,1239.090576 1632.213501,1239.090576 
	C1632.213501,1224.463013 1632.213501,1210.378052 1632.213501,1196.903442 
	C1642.346069,1193.764160 1647.873657,1196.703003 1651.914917,1205.015381 
	C1656.851562,1215.170044 1662.828003,1224.840820 1668.747559,1234.479858 
	C1670.113647,1236.704224 1672.993530,1239.268066 1675.316895,1239.412109 
	C1684.476196,1239.979248 1693.691406,1239.644653 1704.949585,1239.644653 
	C1694.996338,1222.315674 1686.004883,1206.661255 1676.815430,1190.661865 
	C1697.599976,1176.692139 1705.774536,1158.760376 1697.695068,1133.612183 
M1760.044189,1172.404907 
	C1755.743408,1179.908325 1751.464233,1187.424316 1747.135864,1194.911743 
	C1742.972412,1202.113892 1738.615356,1209.207886 1734.606201,1216.494141 
	C1730.560547,1223.846680 1725.421021,1230.697021 1722.058838,1239.689697 
	C1730.644287,1239.689697 1737.682861,1239.084839 1744.572144,1239.841309 
	C1753.395752,1240.809937 1758.684570,1237.794800 1762.576050,1229.662720 
	C1767.078247,1220.254761 1773.020386,1211.535889 1778.926514,1201.518555 
	C1781.503662,1205.654541 1783.302124,1208.411865 1784.971680,1211.245361 
	C1789.533081,1218.985718 1793.841187,1226.885742 1798.691772,1234.438721 
	C1800.117188,1236.658203 1802.944214,1239.272095 1805.257935,1239.401611 
	C1815.078613,1239.951294 1824.947754,1239.634888 1836.369873,1239.634888 
	C1833.944824,1235.026123 1832.404175,1231.832764 1830.631714,1228.773682 
	C1820.788452,1211.786987 1811.054321,1194.733154 1800.909302,1177.927734 
	C1797.799072,1172.775635 1797.498657,1168.703735 1800.754761,1163.392456 
	C1810.491577,1147.509155 1819.688110,1131.294189 1829.052124,1115.183472 
	C1830.663940,1112.410400 1832.062622,1109.513428 1834.476685,1104.934570 
	C1828.135620,1104.934570 1823.268433,1104.846680 1818.405273,1104.949585 
	C1794.963501,1105.445190 1802.351807,1101.442017 1790.103882,1121.200317 
	C1786.552368,1126.929810 1783.095703,1132.717773 1778.841187,1139.720459 
	C1772.536133,1128.951294 1767.327026,1119.699951 1761.708740,1110.704224 
	C1760.274414,1108.407349 1757.635498,1105.452881 1755.392944,1105.312744 
	C1745.259766,1104.679321 1735.050659,1104.546997 1723.761963,1105.447632 
	C1726.055786,1109.667847 1727.543701,1112.572632 1729.181152,1115.390259 
	C1738.209717,1130.926270 1747.315063,1146.417725 1756.290283,1161.984253 
	C1757.928223,1164.825073 1759.086060,1167.942871 1760.044189,1172.404907 
M736.901184,1156.999512 
	C736.901001,1166.309814 736.900696,1175.619995 736.900635,1184.930298 
	C736.900513,1193.907959 736.700745,1202.891479 736.956421,1211.861816 
	C737.215820,1220.961548 735.786194,1230.209961 738.123840,1239.791016 
	C748.430908,1239.277344 757.944885,1240.476196 767.195984,1239.024048 
	C769.050720,1223.076050 768.372131,1113.080078 766.431396,1105.671631 
	C757.043945,1105.671631 747.595154,1105.671631 736.901855,1105.671631 
	C736.901855,1122.593506 736.901855,1138.796509 736.901184,1156.999512 
M784.587585,1335.651123 
	C787.505188,1338.245972 790.422791,1340.840820 794.026855,1344.046143 
	C794.707214,1342.165649 795.896423,1340.560059 795.505676,1339.592651 
	C794.793640,1337.830078 793.279358,1336.307861 791.865173,1334.925415 
	C779.312500,1322.654785 758.370728,1323.059448 745.863159,1335.759399 
	C733.248718,1348.567871 733.518311,1370.162842 746.447876,1382.579834 
	C758.993530,1394.628174 781.121826,1394.943848 792.767578,1382.934326 
	C798.500549,1377.022339 802.175049,1370.136719 799.343445,1361.507812 
	C781.190186,1359.578125 773.377441,1360.205566 767.467163,1365.204590 
	C777.451477,1365.646118 786.008423,1366.024536 794.660767,1366.407227 
	C791.651123,1381.002563 782.738953,1387.243286 767.531433,1386.343140 
	C753.139099,1385.491211 742.657104,1374.948242 741.959412,1360.622070 
	C741.221008,1345.458740 750.499146,1333.812134 764.986328,1331.575806 
	C771.486023,1330.572388 777.574158,1331.604858 784.587585,1335.651123 
M1772.822021,1331.200562 
	C1771.811523,1329.893188 1770.801025,1328.585815 1769.790405,1327.278442 
	C1769.134521,1327.458862 1768.478638,1327.639282 1767.822754,1327.819580 
	C1767.822754,1333.355957 1767.822754,1338.892212 1767.822754,1344.428467 
	C1767.822754,1350.094116 1768.078369,1355.774658 1767.748047,1361.421021 
	C1767.440674,1366.676880 1769.168091,1372.223999 1766.185059,1378.227905 
	C1764.003906,1375.254272 1762.394287,1373.168823 1760.899658,1371.004028 
	C1752.002808,1358.118896 1743.161499,1345.195435 1734.229614,1332.334839 
	C1732.463257,1329.791626 1731.217163,1325.925171 1726.494263,1328.285156 
	C1726.494263,1348.748291 1726.494263,1369.250977 1726.494263,1389.629395 
	C1730.794312,1390.799194 1731.652954,1388.789551 1731.629150,1385.560547 
	C1731.570312,1377.562500 1731.618896,1369.563599 1731.621460,1361.565063 
	C1731.623657,1354.733643 1731.621826,1347.902100 1731.621826,1341.070679 
	C1735.333862,1343.070557 1737.354126,1345.503296 1739.143677,1348.095093 
	C1747.851318,1360.705688 1756.483643,1373.368286 1765.177002,1385.988770 
	C1766.801392,1388.346802 1768.107788,1391.498779 1771.962769,1389.796143 
	C1772.278931,1389.013184 1772.731445,1388.412964 1772.733643,1387.811035 
	C1772.801514,1369.481934 1772.824829,1351.152710 1772.822021,1331.200562 
M1129.127319,1390.288818 
	C1130.421021,1390.606934 1131.699463,1391.020996 1133.010742,1391.228638 
	C1150.037720,1393.926147 1166.327148,1383.227173 1170.183960,1366.841064 
	C1174.374390,1349.037598 1164.478760,1332.194336 1146.926514,1327.254761 
	C1130.403809,1322.604980 1113.607666,1331.418091 1107.554565,1347.763184 
	C1101.411865,1364.349731 1110.122681,1384.143799 1129.127319,1390.288818 
M1390.295532,1387.626831 
	C1392.672729,1385.815674 1395.264893,1384.225342 1397.391724,1382.156738 
	C1409.069092,1370.798462 1410.447388,1352.276733 1400.719604,1339.269165 
	C1390.654419,1325.809937 1372.292969,1322.039307 1357.791748,1330.453735 
	C1343.849121,1338.544067 1337.952881,1356.247559 1343.964355,1371.291016 
	C1350.599976,1387.896362 1371.470337,1397.323486 1390.295532,1387.626831 
M1676.080688,1391.424194 
	C1678.942261,1390.561646 1681.920166,1389.968384 1684.646362,1388.791870 
	C1700.362549,1382.009521 1708.009033,1364.259888 1702.328003,1348.051270 
	C1696.617188,1331.757324 1679.572754,1322.668945 1663.137695,1327.154297 
	C1645.870972,1331.866699 1635.664673,1348.313354 1639.348389,1365.488525 
	C1642.910889,1382.098511 1655.470825,1391.476929 1676.080688,1391.424194 
M980.629761,1367.799805 
	C977.838623,1362.883423 982.850952,1362.530029 984.960510,1360.685303 
	C990.699097,1355.667114 993.405945,1349.490112 991.741760,1342.048340 
	C990.102112,1334.716797 985.552185,1328.793457 977.985657,1328.007324 
	C968.274780,1326.998535 958.379761,1327.761963 947.978577,1327.761963 
	C947.978577,1347.823608 947.964661,1367.051514 948.010803,1386.279419 
	C948.013794,1387.514282 948.481201,1388.748047 948.748230,1390.059570 
	C950.134033,1389.941772 951.929504,1389.959106 951.953308,1389.762451 
	C952.950562,1381.513184 953.789429,1373.244751 954.694702,1364.528564 
	C958.216064,1364.528564 961.247375,1364.914673 964.142456,1364.450684 
	C970.795593,1363.384155 974.633850,1366.280151 977.427307,1372.090454 
	C980.007141,1377.456177 983.287109,1382.493164 986.380554,1387.601074 
	C987.850708,1390.028320 989.731445,1391.709106 992.953308,1388.822021 
	C989.081482,1382.179443 985.260559,1375.624146 980.629761,1367.799805 
M1482.133911,1351.032471 
	C1482.185425,1358.009766 1481.708862,1365.040283 1482.403809,1371.952881 
	C1483.666748,1384.514526 1493.789062,1392.460693 1506.762451,1391.816772 
	C1519.666260,1391.176514 1528.251221,1383.274902 1528.694824,1370.645508 
	C1529.149292,1357.700317 1528.898682,1344.727051 1528.744141,1331.768555 
	C1528.725952,1330.243164 1527.364136,1328.733887 1526.625244,1327.217285 
	C1525.863281,1327.287109 1525.101440,1327.356934 1524.339478,1327.426758 
	C1524.166992,1330.517944 1523.864868,1333.608398 1523.845703,1336.700562 
	C1523.777832,1347.667236 1523.874512,1358.635010 1523.774780,1369.601196 
	C1523.708374,1376.909424 1520.696777,1382.968384 1513.583374,1385.169189 
	C1500.211182,1389.306396 1486.862061,1384.213745 1487.590088,1367.820312 
	C1487.855225,1361.850220 1487.629883,1355.858276 1487.620605,1349.876221 
	C1487.610718,1343.562012 1487.697510,1337.244995 1487.529907,1330.934814 
	C1487.450684,1327.949463 1485.845581,1326.825439 1483.019409,1328.251099 
	C1482.728638,1328.956909 1482.280273,1329.546143 1482.272095,1330.141357 
	C1482.185791,1336.453613 1482.169434,1342.766846 1482.133911,1351.032471 
M1292.147583,1389.419189 
	C1298.192017,1391.667725 1304.268555,1392.681274 1310.683228,1390.797607 
	C1319.215576,1388.291992 1323.854980,1383.388672 1324.416870,1375.771851 
	C1324.976440,1368.186401 1322.085083,1363.518555 1313.664795,1359.709229 
	C1308.231567,1357.250977 1302.427979,1355.623657 1296.925781,1353.302979 
	C1290.314819,1350.514771 1287.678589,1346.568604 1288.417603,1341.398560 
	C1289.246460,1335.598389 1294.352783,1331.484009 1301.387939,1331.216675 
	C1306.557861,1331.020264 1311.277100,1332.307495 1314.895264,1336.346313 
	C1316.356689,1337.977539 1317.825684,1339.602051 1320.625244,1342.711060 
	C1320.879272,1339.331543 1321.673340,1337.346802 1321.005859,1336.256958 
	C1316.646362,1329.138794 1309.988037,1325.886475 1301.734131,1326.022217 
	C1292.226196,1326.178589 1284.900391,1331.854492 1283.508545,1339.911133 
	C1281.988525,1348.708496 1285.305176,1353.970947 1295.283081,1358.048218 
	C1300.504517,1360.181763 1305.999146,1361.673218 1311.141724,1363.967285 
	C1317.568359,1366.833984 1320.088501,1371.069092 1319.215210,1376.187256 
	C1318.257690,1381.798828 1313.950928,1385.392456 1307.184692,1386.226074 
	C1297.202637,1387.455811 1293.081787,1385.525635 1282.827637,1374.284546 
	C1282.388550,1376.590820 1281.283325,1378.822388 1281.932373,1379.611450 
	C1284.610352,1382.867798 1287.820068,1385.686890 1292.147583,1389.419189 
M1818.792114,1356.425415 
	C1815.068970,1355.016235 1811.273315,1353.770264 1807.641235,1352.156128 
	C1803.227905,1350.194824 1801.118042,1346.671021 1801.603638,1341.757935 
	C1802.080322,1336.933350 1804.736572,1333.688232 1809.239136,1332.265137 
	C1816.032837,1330.118164 1822.378052,1330.854736 1827.672607,1336.168457 
	C1829.378052,1337.880249 1831.090088,1339.585327 1834.203491,1342.697266 
	C1834.203491,1339.158691 1834.717285,1337.477295 1834.119629,1336.430176 
	C1830.361816,1329.845337 1824.339844,1326.657593 1816.956909,1326.059692 
	C1806.927734,1325.247559 1798.246948,1331.053589 1796.316406,1339.638062 
	C1794.457031,1347.906128 1798.588257,1354.078857 1808.904419,1358.256592 
	C1811.979980,1359.502075 1815.165894,1360.472168 1818.275757,1361.636353 
	C1820.761597,1362.567017 1823.289917,1363.438721 1825.655884,1364.623291 
	C1830.245239,1366.920776 1832.689819,1370.536865 1832.037598,1375.902222 
	C1831.416382,1381.014160 1828.070068,1384.913452 1822.393311,1385.837524 
	C1813.462036,1387.291382 1805.030762,1386.723145 1799.566284,1377.851929 
	C1798.824341,1376.647461 1797.587769,1375.747681 1796.580200,1374.706787 
	C1795.919434,1374.997314 1795.258789,1375.287842 1794.598022,1375.578369 
	C1794.923950,1377.436401 1794.746460,1379.598511 1795.656006,1381.104004 
	C1802.531616,1392.485962 1821.578491,1395.454102 1831.826172,1386.897949 
	C1840.093018,1379.995361 1839.835815,1368.229980 1830.962524,1362.125000 
	C1827.734497,1359.903931 1823.802734,1358.705444 1818.792114,1356.425415 
M1053.609009,1371.829834 
	C1052.023193,1364.402954 1046.405640,1360.988281 1040.058716,1358.433594 
	C1034.825439,1356.327148 1029.433350,1354.611938 1024.221069,1352.458130 
	C1019.406738,1350.468750 1016.941467,1346.796021 1017.647644,1341.419434 
	C1018.337952,1336.163818 1021.524048,1333.087646 1026.518555,1331.884277 
	C1033.936523,1330.096802 1040.270630,1331.703369 1045.240845,1337.900513 
	C1046.333984,1339.263672 1048.246826,1339.969604 1051.263184,1341.951172 
	C1047.641968,1330.584473 1040.562500,1325.699341 1030.629028,1326.005493 
	C1021.328125,1326.291992 1013.862122,1331.958862 1012.241394,1339.962158 
	C1010.630371,1347.917725 1014.622681,1354.066284 1024.280884,1358.024170 
	C1029.499268,1360.162842 1034.987671,1361.666382 1040.131714,1363.956299 
	C1046.774780,1366.913452 1048.788086,1370.449585 1048.000610,1376.228394 
	C1047.231201,1381.874390 1043.014404,1385.326538 1036.109375,1386.258301 
	C1025.799316,1387.650024 1018.115967,1383.667603 1013.155762,1374.864258 
	C1009.403931,1376.258179 1009.859253,1378.214111 1011.211670,1380.585083 
	C1015.829346,1388.680054 1026.888794,1393.321411 1037.218750,1391.404907 
	C1047.732422,1389.454346 1051.835938,1384.990601 1053.609009,1371.829834 
M890.621216,1349.269653 
	C885.761230,1362.765869 879.690063,1375.846191 876.411865,1390.047852 
	C884.237549,1387.960571 882.121094,1379.000732 887.610718,1374.910400 
	C897.080383,1374.910400 906.941284,1374.910400 916.577087,1374.910400 
	C924.397766,1388.296875 925.150513,1389.228394 928.688904,1389.185669 
	C921.194458,1369.833984 913.849976,1350.664673 906.253174,1331.595703 
	C905.552673,1329.837402 903.244080,1328.719727 901.682129,1327.304565 
	C900.250366,1328.901611 898.321716,1330.274902 897.482056,1332.138672 
	C895.169495,1337.271729 893.313110,1342.610229 890.621216,1349.269653 
M822.085083,1330.070190 
	C822.085083,1349.950317 822.085083,1369.830444 822.085083,1389.557129 
	C839.112000,1391.829956 853.474548,1391.099121 860.199402,1386.672119 
	C848.670288,1384.872803 838.484863,1386.757080 828.370728,1385.265747 
	C828.370728,1376.999878 828.370728,1369.238037 828.370728,1361.579346 
	C837.895020,1359.586426 847.225037,1362.436157 855.915222,1358.449341 
	C847.037903,1354.188721 837.320007,1357.493530 828.489014,1355.230713 
	C828.489014,1347.285278 828.489014,1339.881348 828.489014,1332.038086 
	C834.327637,1332.038086 839.317139,1332.280518 844.271545,1331.967529 
	C848.882874,1331.676270 853.907471,1333.439941 858.701599,1330.156982 
	C852.947021,1326.620483 834.696228,1325.919800 822.085083,1330.070190 
M1193.137939,1378.214478 
	C1193.152832,1388.094116 1193.152832,1388.094116 1198.240234,1390.363892 
	C1198.240234,1380.812988 1198.240234,1371.704712 1198.240234,1362.885254 
	C1208.446045,1360.139282 1218.245117,1364.091797 1229.315308,1359.478760 
	C1218.308838,1354.035889 1207.911133,1359.247803 1198.979736,1355.496582 
	C1198.979736,1347.698730 1198.979736,1340.204956 1198.979736,1332.038086 
	C1204.557739,1332.038086 1209.536621,1332.290405 1214.477417,1331.964600 
	C1219.079712,1331.661255 1224.109863,1333.492188 1228.841309,1330.133179 
	C1223.016235,1326.527588 1204.225830,1325.954712 1193.137939,1328.927979 
	C1193.137939,1344.568481 1193.137939,1360.485718 1193.137939,1378.214478 
M1569.024902,1327.145874 
	C1551.572754,1327.145142 1551.572754,1327.145142 1546.609497,1331.368042 
	C1554.234253,1331.813232 1560.547485,1332.181885 1567.469116,1332.586060 
	C1567.469116,1336.864258 1567.468506,1340.496460 1567.469116,1344.128784 
	C1567.471313,1357.765747 1567.428589,1371.403076 1567.519775,1385.039551 
	C1567.535767,1387.422729 1566.689575,1390.928589 1572.527832,1389.682251 
	C1572.527832,1370.847290 1572.527832,1351.749878 1572.527832,1333.323242 
	C1579.551514,1330.256104 1586.614990,1334.490479 1594.246094,1328.225830 
	C1585.142456,1326.531738 1577.993652,1327.398926 1569.024902,1327.145874 
M1434.358154,1358.980469 
	C1434.285278,1348.533691 1434.212402,1338.086914 1434.135864,1327.101562 
	C1431.865967,1327.728027 1430.188843,1327.970459 1430.187378,1328.222778 
	C1430.066406,1348.694092 1430.076050,1369.166016 1430.076050,1390.401367 
	C1441.331055,1390.229980 1452.544434,1391.403442 1463.696777,1388.486084 
	C1459.503784,1384.715698 1454.550049,1386.103027 1449.933960,1385.882202 
	C1445.062378,1385.649170 1440.170898,1385.829834 1434.358154,1385.829834 
	C1434.358154,1376.767212 1434.358154,1368.865967 1434.358154,1358.980469 
M1617.620117,1334.258911 
	C1617.241943,1331.357300 1618.923706,1327.012329 1612.556885,1327.885986 
	C1612.556885,1348.501953 1612.556885,1369.119019 1612.556885,1389.662354 
	C1617.795288,1390.960693 1617.619141,1387.735107 1617.618530,1384.640381 
	C1617.615234,1368.430542 1617.619629,1352.220825 1617.620117,1334.258911 
z"/>
<path fill="#E91D24" opacity="1.000000" stroke="none" 
	d="
M1258.194946,628.007507 
	C1261.625610,610.422607 1264.949585,592.816040 1268.507202,575.256897 
	C1278.313232,526.858826 1288.189697,478.475006 1298.114868,430.101257 
	C1299.436768,423.658783 1301.202148,417.307373 1303.037354,409.786255 
	C1327.099609,409.786255 1351.622803,409.786255 1377.072266,410.879150 
	C1377.987061,431.719818 1377.975708,451.467560 1377.964478,471.215302 
	C1372.705200,471.557312 1367.445801,471.899323 1361.764893,472.268738 
	C1360.589355,476.731964 1359.373047,480.836456 1358.430542,485.002899 
	C1328.814941,615.929871 1299.227051,746.863220 1269.621338,877.792480 
	C1269.255493,879.410828 1268.713745,880.989441 1267.320801,882.880493 
	C1265.591797,878.738586 1264.111694,874.304199 1264.102417,869.866760 
	C1263.956543,800.015137 1264.076904,730.162964 1263.904297,660.311462 
	C1263.882324,651.383423 1262.744873,642.436768 1261.695679,633.549255 
	C1261.464600,631.591553 1259.409790,629.849121 1258.194946,628.007507 
z"/>
<path fill="#D22229" opacity="1.000000" stroke="none" 
	d="
M1592.356079,523.357605 
	C1593.717163,525.220459 1595.230835,526.991272 1596.416748,528.959717 
	C1625.927002,577.943970 1655.348633,626.981812 1684.966187,675.900940 
	C1688.001099,680.913635 1688.835327,684.886353 1685.643555,690.407776 
	C1654.695801,743.942627 1624.037598,797.644897 1592.324219,850.998169 
	C1590.901611,846.793945 1590.087524,842.893250 1590.062622,838.987610 
	C1589.931763,818.476990 1590.002441,797.965149 1589.999146,777.453735 
	C1589.997437,766.536377 1589.975464,755.619080 1589.987793,744.701721 
	C1589.993164,739.843872 1589.584717,735.264160 1583.665771,733.885925 
	C1591.669434,719.351440 1599.470703,704.699829 1607.787231,690.346619 
	C1610.667358,685.375732 1610.552979,681.483948 1607.610352,676.648743 
	C1600.193359,664.461548 1593.253296,651.984070 1586.497192,638.326599 
	C1587.914429,632.633301 1589.817261,628.244568 1589.859375,623.838074 
	C1590.132812,595.220581 1589.892334,566.598328 1590.108521,537.979858 
	C1590.145386,533.100403 1591.571655,528.231445 1592.356079,523.357605 
z"/>
<path fill="#D01E36" opacity="1.000000" stroke="none" 
	d="
M1391.368408,1203.552124 
	C1387.899658,1215.844849 1384.670654,1227.360107 1381.351685,1239.196899 
	C1369.609985,1239.196899 1358.359863,1239.196899 1346.117065,1239.196899 
	C1339.272949,1214.700073 1332.396240,1190.086670 1324.895874,1163.241211 
	C1320.308350,1172.726074 1318.934937,1181.102783 1316.554688,1189.086548 
	C1314.081421,1197.381592 1312.016113,1205.797607 1309.688232,1214.137207 
	C1307.377441,1222.415527 1304.961548,1230.664795 1302.515747,1239.191406 
	C1290.634521,1239.191406 1279.444824,1239.191406 1267.247192,1239.191406 
	C1255.051880,1194.959351 1242.888672,1150.843872 1230.437256,1105.682617 
	C1241.891602,1105.682617 1251.993164,1105.682617 1262.916382,1105.682617 
	C1270.161377,1134.679321 1277.369751,1163.529297 1284.578125,1192.379272 
	C1285.411743,1192.429199 1286.245239,1192.479126 1287.078857,1192.529053 
	C1296.225342,1164.016479 1302.884155,1134.735840 1311.759399,1105.597900 
	C1320.285645,1105.597900 1328.421021,1105.597900 1337.093506,1105.597900 
	C1345.274414,1135.057129 1353.350586,1164.139404 1361.426758,1193.221558 
	C1362.182495,1193.263550 1362.938232,1193.305542 1363.693848,1193.347534 
	C1371.794922,1164.299194 1377.989502,1134.715576 1385.877441,1105.700562 
	C1396.884033,1105.700562 1406.983276,1105.700562 1418.212769,1105.700562 
	C1409.162354,1138.723389 1400.385376,1170.749023 1391.368408,1203.552124 
z"/>
<path fill="#F06E50" opacity="1.000000" stroke="none" 
	d="
M988.381348,620.828735 
	C979.200684,637.350647 970.026245,653.875916 960.836121,670.392517 
	C957.451538,676.475342 954.029907,682.537537 950.458496,688.906372 
	C965.695984,715.508850 980.864441,741.990845 995.553345,769.664429 
	C991.068909,774.526001 992.053467,779.415955 992.042358,783.960632 
	C991.970154,813.517029 992.038086,843.073669 991.962036,872.630005 
	C991.951355,876.788025 993.061462,881.528748 987.991455,884.003540 
	C983.559875,876.624695 978.994812,869.322266 974.721130,861.853088 
	C960.531921,837.054443 946.447510,812.195801 932.886841,786.363098 
	C938.936584,781.821167 937.952881,776.149536 937.958984,770.968933 
	C938.023743,715.557129 938.002319,660.145203 937.986450,604.733337 
	C937.985779,602.414734 938.417480,599.835205 937.564819,597.840088 
	C936.353577,595.005981 934.136536,592.601685 932.349243,590.013794 
	C947.809570,562.251282 963.269897,534.488770 980.040649,506.477295 
	C987.580078,508.278320 985.919434,513.629517 985.939209,517.951904 
	C986.072388,547.065857 985.895691,576.181580 986.118225,605.294495 
	C986.157837,610.478027 987.591370,615.650940 988.381348,620.828735 
z"/>
<path fill="#D82027" opacity="1.000000" stroke="none" 
	d="
M1583.087646,734.249268 
	C1589.584717,735.264160 1589.993164,739.843872 1589.987793,744.701721 
	C1589.975464,755.619080 1589.997437,766.536377 1589.999146,777.453735 
	C1590.002441,797.965149 1589.931763,818.476990 1590.062622,838.987610 
	C1590.087524,842.893250 1590.901611,846.793945 1591.793701,851.408813 
	C1590.778564,855.087280 1589.476074,858.142151 1587.840698,861.006897 
	C1568.889160,894.204712 1549.739136,927.290771 1531.040894,960.630310 
	C1527.824341,966.365417 1524.287598,968.585144 1517.726685,968.334351 
	C1503.781128,967.801208 1489.803223,968.119324 1474.915649,966.993408 
	C1473.993652,944.998474 1473.994507,924.098633 1473.995361,903.198792 
	C1486.969727,905.125488 1492.831787,897.782471 1498.553833,887.154602 
	C1526.066895,836.053101 1554.441040,785.415161 1583.087646,734.249268 
z"/>
<path fill="#D82027" opacity="1.000000" stroke="none" 
	d="
M1592.199951,522.689209 
	C1591.571655,528.231445 1590.145386,533.100403 1590.108521,537.979858 
	C1589.892334,566.598328 1590.132812,595.220581 1589.859375,623.838074 
	C1589.817261,628.244568 1587.914429,632.633301 1586.370850,637.638306 
	C1582.220947,632.360413 1578.428345,626.558228 1574.946411,620.575195 
	C1547.146484,572.805176 1519.430176,524.986206 1491.580566,477.245056 
	C1489.987915,474.515015 1487.451782,472.335388 1484.667725,468.768799 
	C1483.985107,448.460144 1483.989624,429.282227 1483.994141,410.104340 
	C1495.592896,409.957153 1507.198242,409.989807 1518.787354,409.575287 
	C1523.506592,409.406494 1525.897217,411.610962 1528.127808,415.351868 
	C1549.356812,450.953766 1570.719604,486.475800 1592.199951,522.689209 
z"/>
<path fill="#D01E36" opacity="1.000000" stroke="none" 
	d="
M1017.803955,1141.990112 
	C1017.803894,1129.393188 1017.803894,1117.792969 1017.803894,1105.576660 
	C1028.309326,1105.576660 1037.812622,1105.576660 1047.993408,1105.576660 
	C1047.993408,1150.079956 1047.993408,1194.222778 1047.993408,1239.639404 
	C1041.470947,1239.639404 1035.266113,1239.578979 1029.062988,1239.659424 
	C1024.510864,1239.718384 1022.978760,1236.051636 1020.915405,1233.166260 
	C1007.931580,1215.009766 995.036499,1196.790161 982.080383,1178.613892 
	C980.204834,1175.982666 978.158997,1173.472900 975.048096,1169.414917 
	C973.186707,1182.317505 974.273071,1193.464966 974.076965,1204.539551 
	C973.877686,1215.790894 974.032898,1227.048584 974.032898,1238.986816 
	C963.497986,1238.986816 954.000427,1238.986816 943.216736,1238.986816 
	C942.580933,1194.796143 943.064209,1150.663574 942.886353,1105.060791 
	C950.381958,1105.060791 956.987915,1104.472168 963.395508,1105.343018 
	C966.054504,1105.704468 968.817993,1108.802002 970.632996,1111.307861 
	C983.726013,1129.384644 996.576111,1147.637329 1009.536072,1165.810791 
	C1011.428772,1168.464844 1013.495789,1170.994751 1016.240234,1174.569458 
	C1018.774963,1168.351807 1017.554871,1163.068481 1017.760132,1157.979248 
	C1017.961365,1152.989258 1017.803955,1147.984863 1017.803955,1141.990112 
z"/>
<path fill="#CF1E35" opacity="1.000000" stroke="none" 
	d="
M801.958923,1150.000000 
	C801.958923,1134.743164 801.958923,1120.486328 801.958923,1105.006470 
	C809.224670,1105.006470 815.579163,1104.325195 821.669861,1105.296997 
	C824.667480,1105.775146 827.830444,1108.837036 829.801147,1111.543457 
	C842.745117,1129.319702 855.377258,1147.322876 868.130066,1165.238647 
	C870.047913,1167.932739 872.064819,1170.556274 874.747009,1174.170776 
	C877.949036,1165.944214 876.156433,1158.402222 876.480286,1151.100708 
	C876.804688,1143.783691 876.551453,1136.440918 876.551453,1129.109497 
	C876.551453,1121.531738 876.551453,1113.953979 876.551453,1105.662598 
	C887.470337,1105.662598 897.245544,1105.662598 907.441406,1105.662598 
	C907.441406,1150.291504 907.441406,1194.179932 907.441406,1239.501709 
	C900.541138,1239.537720 893.949219,1240.150513 887.541382,1239.328247 
	C884.879456,1238.986572 882.051270,1235.985840 880.252686,1233.503174 
	C867.156433,1215.425171 854.316345,1197.161743 841.358521,1178.983154 
	C839.493225,1176.366211 837.431091,1173.889771 834.321777,1169.880615 
	C832.037842,1182.666992 833.403564,1193.813232 833.155273,1204.854614 
	C832.902405,1216.100586 833.099365,1227.356445 833.099365,1239.130737 
	C822.291626,1239.130737 812.818054,1239.130737 801.958923,1239.130737 
	C801.958923,1209.405640 801.958923,1180.202881 801.958923,1150.000000 
z"/>
<path fill="#D01E36" opacity="1.000000" stroke="none" 
	d="
M1205.335938,1132.718750 
	C1224.807129,1162.211548 1219.794067,1201.643066 1195.011353,1223.720459 
	C1172.749512,1243.552124 1146.910034,1247.849487 1119.624512,1236.589355 
	C1093.237915,1225.700073 1079.036377,1204.795044 1077.491577,1176.205200 
	C1075.744263,1143.870483 1094.065186,1116.461792 1123.362915,1106.215820 
	C1153.625366,1095.632446 1184.892334,1105.562866 1205.335938,1132.718750 
M1117.005737,1146.181152 
	C1115.548950,1148.409790 1113.880859,1150.529663 1112.668457,1152.884155 
	C1101.682495,1174.217651 1110.774902,1201.123657 1132.102539,1209.154785 
	C1147.306152,1214.879761 1161.907715,1213.059814 1173.973877,1201.637573 
	C1186.995605,1189.310913 1189.129395,1173.771729 1183.555664,1157.423218 
	C1178.282104,1141.955811 1166.242676,1134.029175 1150.359131,1132.573853 
	C1137.778564,1131.421143 1126.730957,1135.634033 1117.005737,1146.181152 
z"/>
<path fill="#D01E36" opacity="1.000000" stroke="none" 
	d="
M1567.033081,1145.217285 
	C1577.240479,1175.057617 1572.728027,1201.265015 1550.522949,1223.202148 
	C1529.671387,1243.802002 1496.351196,1248.180908 1469.773438,1234.603149 
	C1443.613525,1221.239014 1428.432495,1192.000122 1432.606201,1163.017944 
	C1437.010254,1132.434814 1458.477417,1109.504761 1488.183105,1103.653442 
	C1521.593262,1097.072388 1551.649170,1112.712891 1567.033081,1145.217285 
M1467.533691,1153.142090 
	C1466.569824,1155.621704 1465.365845,1158.036743 1464.679810,1160.590942 
	C1458.953491,1181.909790 1468.998047,1203.161621 1488.336670,1209.631836 
	C1503.735229,1214.783447 1518.214600,1212.560059 1529.922607,1200.751099 
	C1541.894653,1188.675659 1543.898682,1173.760132 1538.819702,1158.112671 
	C1533.769897,1142.555176 1521.965942,1134.203369 1506.108032,1132.689819 
	C1489.892700,1131.142090 1476.821045,1137.411499 1467.533691,1153.142090 
z"/>
<path fill="#EB2928" opacity="1.000000" stroke="none" 
	d="
M1257.870850,628.720581 
	C1259.409790,629.849121 1261.464600,631.591553 1261.695679,633.549255 
	C1262.744873,642.436768 1263.882324,651.383423 1263.904297,660.311462 
	C1264.076904,730.162964 1263.956543,800.015137 1264.102417,869.866760 
	C1264.111694,874.304199 1265.591797,878.738586 1267.015503,883.594788 
	C1261.569336,911.780334 1255.495361,939.545532 1249.253662,968.077087 
	C1240.930054,968.077087 1233.370605,968.077087 1224.900635,966.982422 
	C1223.993408,932.345276 1224.185181,898.801270 1223.904663,865.261169 
	C1223.796753,852.355957 1222.772583,839.447327 1221.772217,826.570862 
	C1221.596069,824.304993 1219.469727,822.190552 1218.244141,820.006226 
	C1222.300415,799.517334 1226.248779,779.006348 1230.435791,758.544189 
	C1238.856689,717.391479 1247.401733,676.264221 1255.924316,635.132263 
	C1256.323853,633.203491 1256.999634,631.331848 1257.870850,628.720581 
z"/>
<path fill="#CF1E35" opacity="1.000000" stroke="none" 
	d="
M1697.940918,1134.351196 
	C1705.774536,1158.760376 1697.599976,1176.692139 1676.815430,1190.661865 
	C1686.004883,1206.661255 1694.996338,1222.315674 1704.949585,1239.644653 
	C1693.691406,1239.644653 1684.476196,1239.979248 1675.316895,1239.412109 
	C1672.993530,1239.268066 1670.113647,1236.704224 1668.747559,1234.479858 
	C1662.828003,1224.840820 1656.851562,1215.170044 1651.914917,1205.015381 
	C1647.873657,1196.703003 1642.346069,1193.764160 1632.213501,1196.903442 
	C1632.213501,1210.378052 1632.213501,1224.463013 1632.213501,1239.090576 
	C1621.298096,1239.090576 1611.819946,1239.090576 1601.618652,1239.090576 
	C1601.618652,1194.630737 1601.618652,1150.546387 1601.618652,1106.784424 
	C1602.663452,1106.103638 1603.205933,1105.441895 1603.752686,1105.438477 
	C1622.376831,1105.321167 1641.053589,1104.370483 1659.610596,1105.457031 
	C1677.769043,1106.520386 1690.292603,1117.057007 1697.940918,1134.351196 
M1662.123047,1165.989014 
	C1664.079712,1163.804810 1666.555786,1161.898926 1667.901367,1159.387329 
	C1673.149048,1149.592041 1668.099365,1136.443726 1657.905518,1134.622070 
	C1649.606567,1133.139038 1641.029297,1133.547852 1632.689941,1134.653320 
	C1632.689941,1146.226318 1632.689941,1156.654785 1632.689941,1167.607056 
	C1642.471436,1168.065430 1651.586914,1169.351807 1662.123047,1165.989014 
z"/>
<path fill="#E71E25" opacity="1.000000" stroke="none" 
	d="
M1462.576538,529.020386 
	C1475.022339,550.738037 1487.468140,572.455688 1499.981445,595.733765 
	C1499.369263,607.235291 1498.164429,617.173096 1498.103149,627.117981 
	C1497.871094,664.773071 1497.865234,702.431335 1498.115845,740.086121 
	C1498.175293,749.018921 1499.559082,757.942932 1500.333618,766.870972 
	C1488.080811,787.730896 1475.828003,808.590820 1462.567505,829.155212 
	C1461.043335,824.612732 1460.097046,820.367615 1460.079102,816.118530 
	C1459.949951,785.466187 1460.131592,754.812073 1459.888794,724.161072 
	C1459.847656,718.958496 1458.238159,713.768311 1457.353271,708.572388 
	C1460.959961,701.852539 1464.391479,695.029907 1468.243530,688.453674 
	C1470.343384,684.868896 1470.415771,681.897339 1468.215210,678.324219 
	C1464.560547,672.389832 1461.344238,666.185425 1458.144043,658.599670 
	C1458.899658,652.186279 1459.913574,647.269958 1459.935303,642.349304 
	C1460.079468,609.760498 1459.898682,577.170044 1460.126221,544.582214 
	C1460.162476,539.389465 1461.721558,534.207397 1462.576538,529.020386 
z"/>
<path fill="#E11E26" opacity="1.000000" stroke="none" 
	d="
M1473.079712,902.985596 
	C1473.994507,924.098633 1473.993652,944.998474 1473.992065,966.818604 
	C1454.678345,967.881897 1435.365479,968.085266 1416.052246,968.152100 
	C1394.064941,968.228149 1372.077026,968.182495 1350.089478,968.189331 
	C1346.500610,968.190430 1342.911621,968.189514 1338.648438,968.189514 
	C1338.648438,946.062073 1338.648438,924.913574 1338.648438,902.527344 
	C1360.858887,901.675476 1383.042480,902.261230 1405.211792,902.338074 
	C1427.529419,902.415466 1449.846680,902.622253 1473.079712,902.985596 
z"/>
<path fill="#D01E36" opacity="1.000000" stroke="none" 
	d="
M1760.254883,1171.668823 
	C1759.086060,1167.942871 1757.928223,1164.825073 1756.290283,1161.984253 
	C1747.315063,1146.417725 1738.209717,1130.926270 1729.181152,1115.390259 
	C1727.543701,1112.572632 1726.055786,1109.667847 1723.761963,1105.447632 
	C1735.050659,1104.546997 1745.259766,1104.679321 1755.392944,1105.312744 
	C1757.635498,1105.452881 1760.274414,1108.407349 1761.708740,1110.704224 
	C1767.327026,1119.699951 1772.536133,1128.951294 1778.841187,1139.720459 
	C1783.095703,1132.717773 1786.552368,1126.929810 1790.103882,1121.200317 
	C1802.351807,1101.442017 1794.963501,1105.445190 1818.405273,1104.949585 
	C1823.268433,1104.846680 1828.135620,1104.934570 1834.476685,1104.934570 
	C1832.062622,1109.513428 1830.663940,1112.410400 1829.052124,1115.183472 
	C1819.688110,1131.294189 1810.491577,1147.509155 1800.754761,1163.392456 
	C1797.498657,1168.703735 1797.799072,1172.775635 1800.909302,1177.927734 
	C1811.054321,1194.733154 1820.788452,1211.786987 1830.631714,1228.773682 
	C1832.404175,1231.832764 1833.944824,1235.026123 1836.369873,1239.634888 
	C1824.947754,1239.634888 1815.078613,1239.951294 1805.257935,1239.401611 
	C1802.944214,1239.272095 1800.117188,1236.658203 1798.691772,1234.438721 
	C1793.841187,1226.885742 1789.533081,1218.985718 1784.971680,1211.245361 
	C1783.302124,1208.411865 1781.503662,1205.654541 1778.926514,1201.518555 
	C1773.020386,1211.535889 1767.078247,1220.254761 1762.576050,1229.662720 
	C1758.684570,1237.794800 1753.395752,1240.809937 1744.572144,1239.841309 
	C1737.682861,1239.084839 1730.644287,1239.689697 1722.058838,1239.689697 
	C1725.421021,1230.697021 1730.560547,1223.846680 1734.606201,1216.494141 
	C1738.615356,1209.207886 1742.972412,1202.113892 1747.135864,1194.911743 
	C1751.464233,1187.424316 1755.743408,1179.908325 1760.254883,1171.668823 
z"/>
<path fill="#EF6246" opacity="1.000000" stroke="none" 
	d="
M988.095276,884.705994 
	C993.061462,881.528748 991.951355,876.788025 991.962036,872.630005 
	C992.038086,843.073669 991.970154,813.517029 992.042358,783.960632 
	C992.053467,779.415955 991.068909,774.526001 995.693726,770.362671 
	C997.307068,771.164734 998.462646,772.366699 999.270264,773.768982 
	C1020.148438,810.021057 1040.990234,846.294067 1061.294434,883.646301 
	C1059.834351,888.441284 1058.163330,892.145630 1058.125244,895.866760 
	C1057.879395,919.818848 1057.990845,943.774658 1057.984863,967.729248 
	C1050.711304,967.729248 1043.437622,967.729248 1034.994263,967.729248 
	C1019.588867,940.628540 1003.893982,913.018494 988.095276,884.705994 
z"/>
<path fill="#E91D24" opacity="1.000000" stroke="none" 
	d="
M1126.119141,628.033813 
	C1117.341309,643.945679 1108.823730,660.009888 1099.645630,675.687439 
	C1096.404785,681.223206 1096.037598,685.388977 1099.548584,691.001282 
	C1106.296753,701.788391 1112.149048,713.135864 1118.049805,725.634094 
	C1117.153198,730.907776 1116.109497,734.795105 1116.083374,738.689270 
	C1115.927124,761.974670 1116.007812,785.261658 1116.003418,808.548096 
	C1116.001953,816.199280 1115.954224,823.850586 1115.984375,831.501587 
	C1116.001587,835.877380 1115.126221,839.531372 1109.840332,840.063293 
	C1102.457764,827.986816 1095.075317,815.910400 1088.017822,802.429810 
	C1088.905029,796.802429 1089.942139,792.580566 1089.955322,788.355530 
	C1090.079956,748.517212 1090.030518,708.678223 1090.030396,668.839478 
	C1090.030273,636.608521 1090.120605,604.377014 1089.930908,572.147156 
	C1089.902222,567.262146 1088.569580,562.384705 1087.840088,557.503784 
	C1093.298096,547.254028 1098.733521,536.992249 1104.227173,526.761597 
	C1105.929565,523.591492 1108.437866,521.790527 1112.297852,522.149353 
	C1114.940918,522.395020 1117.619873,522.254944 1121.129883,523.348022 
	C1121.984375,526.726013 1121.998291,529.043152 1121.998535,531.360352 
	C1122.001343,559.828918 1121.968872,588.297485 1122.039551,616.765930 
	C1122.049927,620.924133 1121.017456,625.640259 1126.119141,628.033813 
z"/>
<path fill="#F17758" opacity="1.000000" stroke="none" 
	d="
M931.878052,590.531250 
	C934.136536,592.601685 936.353577,595.005981 937.564819,597.840088 
	C938.417480,599.835205 937.985779,602.414734 937.986450,604.733337 
	C938.002319,660.145203 938.023743,715.557129 937.958984,770.968933 
	C937.952881,776.149536 938.936584,781.821167 932.781982,785.667725 
	C924.108887,772.304077 916.014954,758.690247 908.122131,744.960754 
	C897.513733,726.507446 887.060364,707.965027 876.145264,688.765808 
	C894.519470,656.275269 912.963135,623.661987 931.878052,590.531250 
z"/>
<path fill="#E11E26" opacity="1.000000" stroke="none" 
	d="
M1483.068604,409.946625 
	C1483.989624,429.282227 1483.985107,448.460144 1483.980469,468.539001 
	C1468.441162,469.739777 1452.901611,470.024475 1437.362793,470.343170 
	C1418.179321,470.736633 1398.996582,471.158356 1378.888916,471.391571 
	C1377.975708,451.467560 1377.987061,431.719818 1377.997070,411.042053 
	C1399.151489,409.966156 1420.307251,409.773163 1441.463379,409.691406 
	C1455.022949,409.639008 1468.583252,409.750732 1483.068604,409.946625 
z"/>
<path fill="#EF6246" opacity="1.000000" stroke="none" 
	d="
M988.927734,620.386047 
	C987.591370,615.650940 986.157837,610.478027 986.118225,605.294495 
	C985.895691,576.181580 986.072388,547.065857 985.939209,517.951904 
	C985.919434,513.629517 987.580078,508.278320 980.576050,506.071350 
	C982.544067,500.619812 985.150696,495.249054 988.053833,490.043762 
	C1000.495361,467.736267 1013.024231,445.477509 1026.583496,422.854919 
	C1033.093628,425.181183 1031.937134,430.296722 1031.956421,434.780609 
	C1032.108276,470.034088 1032.143188,505.288055 1032.214111,540.541870 
	C1030.120605,545.682983 1028.530762,551.104858 1025.847534,555.916931 
	C1013.893860,577.354309 1001.627502,598.617310 988.927734,620.386047 
z"/>
<path fill="#EF5C41" opacity="1.000000" stroke="none" 
	d="
M1032.908203,540.386719 
	C1032.143188,505.288055 1032.108276,470.034088 1031.956421,434.780609 
	C1031.937134,430.296722 1033.093628,425.181183 1026.945312,422.253937 
	C1028.525879,418.049957 1030.807129,414.100891 1033.309326,409.769104 
	C1049.694824,409.769104 1065.916992,409.769104 1083.063965,410.873230 
	C1083.980469,433.722992 1083.972046,455.468597 1083.963623,477.214172 
	C1079.665161,477.487854 1075.366821,477.761536 1070.231323,478.088501 
	C1062.684937,491.379944 1055.098022,505.007874 1047.240356,518.477844 
	C1042.930054,525.866699 1038.163208,532.989075 1032.908203,540.386719 
z"/>
<path fill="#D82027" opacity="1.000000" stroke="none" 
	d="
M1500.880981,766.426147 
	C1499.559082,757.942932 1498.175293,749.018921 1498.115845,740.086121 
	C1497.865234,702.431335 1497.871094,664.773071 1498.103149,627.117981 
	C1498.164429,617.173096 1499.369263,607.235291 1500.124023,596.412659 
	C1503.472168,600.878418 1506.894043,606.141113 1509.992065,611.587952 
	C1522.289307,633.208496 1534.359009,654.959839 1546.816284,676.487183 
	C1549.608032,681.311646 1550.038208,685.005493 1546.961182,690.034302 
	C1531.555786,715.210632 1516.564941,740.640564 1500.880981,766.426147 
z"/>
<path fill="#E11E26" opacity="1.000000" stroke="none" 
	d="
M1110.019043,840.800293 
	C1115.126221,839.531372 1116.001587,835.877380 1115.984375,831.501587 
	C1115.954224,823.850586 1116.001953,816.199280 1116.003418,808.548096 
	C1116.007812,785.261658 1115.927124,761.974670 1116.083374,738.689270 
	C1116.109497,734.795105 1117.153198,730.907776 1118.247803,726.324707 
	C1128.239868,742.026184 1137.792847,758.373352 1147.161865,774.825317 
	C1159.990234,797.351929 1172.679077,819.957947 1185.869263,843.311829 
	C1183.046875,843.792603 1180.936890,844.452881 1178.822876,844.465454 
	C1158.862305,844.583984 1138.901001,844.619507 1118.939941,844.604431 
	C1115.731445,844.602051 1112.088379,845.459656 1110.019043,840.800293 
z"/>
<path fill="#CF1E35" opacity="1.000000" stroke="none" 
	d="
M736.901489,1155.999512 
	C736.901855,1138.796509 736.901855,1122.593506 736.901855,1105.671631 
	C747.595154,1105.671631 757.043945,1105.671631 766.431396,1105.671631 
	C768.372131,1113.080078 769.050720,1223.076050 767.195984,1239.024048 
	C757.944885,1240.476196 748.430908,1239.277344 738.123840,1239.791016 
	C735.786194,1230.209961 737.215820,1220.961548 736.956421,1211.861816 
	C736.700745,1202.891479 736.900513,1193.907959 736.900635,1184.930298 
	C736.900696,1175.619995 736.901001,1166.309814 736.901489,1155.999512 
z"/>
<path fill="#EE553C" opacity="1.000000" stroke="none" 
	d="
M1058.907715,967.912109 
	C1057.990845,943.774658 1057.879395,919.818848 1058.125244,895.866760 
	C1058.163330,892.145630 1059.834351,888.441284 1061.424072,884.344177 
	C1065.249634,889.000122 1068.662476,893.901184 1071.465210,899.129272 
	C1073.476807,902.881470 1076.093140,904.118713 1080.233521,904.064819 
	C1093.527832,903.891968 1106.826660,904.065002 1121.049072,905.181213 
	C1121.974487,926.747803 1121.974731,947.237793 1121.974854,967.727783 
	C1101.260132,967.850159 1080.545288,967.972534 1058.907715,967.912109 
z"/>
<path fill="#EC362D" opacity="1.000000" stroke="none" 
	d="
M1217.945435,820.732788 
	C1219.469727,822.190552 1221.596069,824.304993 1221.772217,826.570862 
	C1222.772583,839.447327 1223.796753,852.355957 1223.904663,865.261169 
	C1224.185181,898.801270 1223.993408,932.345276 1223.987793,966.807373 
	C1208.600464,967.845947 1193.215210,967.964783 1176.909424,966.986206 
	C1175.987671,945.404968 1175.986694,924.921204 1175.985840,904.437439 
	C1183.299072,904.437439 1190.612305,904.437439 1199.208008,904.437439 
	C1200.822021,897.887634 1202.493774,891.706665 1203.857788,885.458557 
	C1208.512573,864.138245 1213.058960,842.794312 1217.945435,820.732788 
z"/>
<path fill="#E11E26" opacity="1.000000" stroke="none" 
	d="
M1126.656006,627.631714 
	C1121.017456,625.640259 1122.049927,620.924133 1122.039551,616.765930 
	C1121.968872,588.297485 1122.001343,559.828918 1121.998535,531.360352 
	C1121.998291,529.043152 1121.984375,526.726013 1121.975220,523.511169 
	C1142.802734,522.613525 1163.632080,522.613525 1186.398193,522.613525 
	C1166.383911,558.329590 1146.814331,592.793884 1126.656006,627.631714 
z"/>
<path fill="#ED4732" opacity="1.000000" stroke="none" 
	d="
M1175.062744,904.270142 
	C1175.986694,924.921204 1175.987671,945.404968 1175.985718,966.808472 
	C1158.596313,967.849731 1141.209717,967.971191 1122.899048,967.910156 
	C1121.974731,947.237793 1121.974487,926.747803 1121.970947,905.348755 
	C1139.358276,904.327454 1156.748901,904.215088 1175.062744,904.270142 
z"/>
<path fill="#EE553C" opacity="1.000000" stroke="none" 
	d="
M1084.888306,477.394958 
	C1083.972046,455.468597 1083.980469,433.722992 1083.986206,411.047699 
	C1100.029785,410.006348 1116.075928,409.894684 1133.049316,410.880981 
	C1133.963745,433.723328 1133.951294,455.467743 1133.938721,477.212158 
	C1117.896851,477.333344 1101.854858,477.454529 1084.888306,477.394958 
z"/>
<path fill="#EC362D" opacity="1.000000" stroke="none" 
	d="
M1177.986938,410.104187 
	C1192.847412,410.104187 1207.708008,410.104187 1223.192993,410.104187 
	C1223.192993,432.429169 1223.192993,454.202576 1223.192993,477.326813 
	C1216.056152,477.439331 1208.902222,477.607574 1201.747437,477.649414 
	C1194.441162,477.692169 1187.134033,477.610870 1178.904541,476.517395 
	C1177.983521,453.668671 1177.985229,431.886444 1177.986938,410.104187 
z"/>
<path fill="#ED4732" opacity="1.000000" stroke="none" 
	d="
M1058.033447,609.994080 
	C1062.992676,600.934082 1067.951904,591.874084 1074.106445,582.774048 
	C1079.483032,586.443787 1077.937988,591.425842 1077.946289,595.890198 
	C1078.050171,652.135559 1078.016113,708.381226 1078.010376,764.626770 
	C1078.010132,767.621582 1078.438477,770.732727 1077.763184,773.574829 
	C1077.212036,775.894531 1075.308594,777.892822 1074.004639,780.033630 
	C1068.595703,771.268311 1063.186890,762.503052 1058.182739,752.461548 
	C1059.729126,746.791138 1061.831299,742.403564 1061.861694,738.001648 
	C1062.124268,700.026917 1062.151245,662.048340 1061.838135,624.074402 
	C1061.799316,619.370850 1059.360229,614.687012 1058.033447,609.994080 
z"/>
<path fill="#ED4732" opacity="1.000000" stroke="none" 
	d="
M1177.063965,409.936951 
	C1177.985229,431.886444 1177.983521,453.668671 1177.981567,476.338501 
	C1163.918213,477.343506 1149.854980,477.460968 1134.865234,477.395264 
	C1133.951294,455.467743 1133.963745,433.723328 1133.971191,411.049377 
	C1148.024414,410.003082 1162.082642,409.886383 1177.063965,409.936951 
z"/>
<path fill="#EC362D" opacity="1.000000" stroke="none" 
	d="
M1074.128540,780.719666 
	C1075.308594,777.892822 1077.212036,775.894531 1077.763184,773.574829 
	C1078.438477,770.732727 1078.010132,767.621582 1078.010376,764.626770 
	C1078.016113,708.381226 1078.050171,652.135559 1077.946289,595.890198 
	C1077.937988,591.425842 1079.483032,586.443787 1074.633789,582.342163 
	C1078.229858,574.098938 1082.494019,566.247620 1087.299194,557.950073 
	C1088.569580,562.384705 1089.902222,567.262146 1089.930908,572.147156 
	C1090.120605,604.377014 1090.030273,636.608521 1090.030396,668.839478 
	C1090.030518,708.678223 1090.079956,748.517212 1089.955322,788.355530 
	C1089.942139,792.580566 1088.905029,796.802429 1087.845093,801.740356 
	C1082.982300,795.438538 1078.617432,788.422119 1074.128540,780.719666 
z"/>
<path fill="#EF5C41" opacity="1.000000" stroke="none" 
	d="
M1057.515137,610.432129 
	C1059.360229,614.687012 1061.799316,619.370850 1061.838135,624.074402 
	C1062.151245,662.048340 1062.124268,700.026917 1061.861694,738.001648 
	C1061.831299,742.403564 1059.729126,746.791138 1058.030762,751.768311 
	C1052.363159,744.092957 1047.252319,735.834717 1042.338745,726.095642 
	C1043.011108,722.011108 1043.885254,719.409424 1043.898438,716.803406 
	C1044.013062,694.168091 1044.080078,671.531006 1043.855957,648.897400 
	C1043.824951,645.779053 1042.123901,642.677246 1041.196045,639.567749 
	C1046.463013,630.001892 1051.729980,620.436035 1057.515137,610.432129 
z"/>
<path fill="#EB2928" opacity="1.000000" stroke="none" 
	d="
M1456.837402,709.072998 
	C1458.238159,713.768311 1459.847656,718.958496 1459.888794,724.161072 
	C1460.131592,754.812073 1459.949951,785.466187 1460.079102,816.118530 
	C1460.097046,820.367615 1461.043335,824.612732 1462.042969,829.563110 
	C1460.995239,833.187317 1459.294434,836.033569 1457.972778,839.046143 
	C1455.923706,843.717346 1452.456543,845.329407 1446.820068,843.339844 
	C1446.029419,811.248596 1446.041138,780.302551 1446.007080,749.356445 
	C1446.001709,744.418152 1446.729126,739.184814 1441.750000,735.776855 
	C1446.607178,727.042419 1451.464355,718.308044 1456.837402,709.072998 
z"/>
<path fill="#ED4732" opacity="1.000000" stroke="none" 
	d="
M1441.159424,736.145874 
	C1446.729126,739.184814 1446.001709,744.418152 1446.007080,749.356445 
	C1446.041138,780.302551 1446.029419,811.248596 1446.036377,843.137207 
	C1440.612671,844.218079 1435.185059,844.356445 1428.877930,843.340759 
	C1427.998535,820.685364 1428.109619,799.182861 1427.909058,777.683350 
	C1427.866699,773.138184 1426.683350,768.603638 1426.025635,764.064209 
	C1430.873413,754.881104 1435.721069,745.697998 1441.159424,736.145874 
z"/>
<path fill="#ED4732" opacity="1.000000" stroke="none" 
	d="
M1444.633179,636.003357 
	C1440.311768,628.588501 1435.990356,621.173706 1431.971191,612.376099 
	C1432.844116,606.775696 1433.883911,602.560852 1433.908447,598.340027 
	C1434.054810,573.099976 1433.967163,547.858704 1433.958008,522.617798 
	C1438.694092,522.508301 1443.430298,522.398743 1449.048584,523.350830 
	C1449.944092,553.585144 1449.960938,582.757690 1449.967651,611.930298 
	C1449.968872,617.565674 1449.917603,623.200989 1449.914307,628.836365 
	C1449.912109,632.536133 1448.760742,635.358215 1444.633179,636.003357 
z"/>
<path fill="#F06E50" opacity="1.000000" stroke="none" 
	d="
M1040.698486,640.006226 
	C1042.123901,642.677246 1043.824951,645.779053 1043.855957,648.897400 
	C1044.080078,671.531006 1044.013062,694.168091 1043.898438,716.803406 
	C1043.885254,719.409424 1043.011108,722.011108 1042.229614,725.403687 
	C1033.207397,712.170776 1024.491577,698.148926 1015.551575,683.766418 
	C1023.899292,669.095154 1032.050049,654.769958 1040.698486,640.006226 
z"/>
<path fill="#EB2928" opacity="1.000000" stroke="none" 
	d="
M1444.792725,636.655457 
	C1448.760742,635.358215 1449.912109,632.536133 1449.914307,628.836365 
	C1449.917603,623.200989 1449.968872,617.565674 1449.967651,611.930298 
	C1449.960938,582.757690 1449.944092,553.585144 1449.921875,523.515015 
	C1455.055420,521.734802 1460.094482,521.105286 1462.391724,528.329956 
	C1461.721558,534.207397 1460.162476,539.389465 1460.126221,544.582214 
	C1459.898682,577.170044 1460.079468,609.760498 1459.935303,642.349304 
	C1459.913574,647.269958 1458.899658,652.186279 1458.012085,657.926025 
	C1453.437012,651.600830 1449.194580,644.454224 1444.792725,636.655457 
z"/>
<path fill="#EF6246" opacity="1.000000" stroke="none" 
	d="
M1415.708252,584.617981 
	C1404.382080,565.047363 1393.045654,545.482666 1381.767456,525.884399 
	C1381.323608,525.113403 1381.436157,524.022339 1381.161743,522.259888 
	C1393.041016,522.259888 1404.585449,522.259888 1417.052734,523.330444 
	C1417.983398,539.952454 1418.160400,555.506775 1417.893555,571.053467 
	C1417.815796,575.586121 1416.471802,580.097107 1415.708252,584.617981 
z"/>
<path fill="#D0766E" opacity="1.000000" stroke="none" 
	d="
M783.961548,1335.187500 
	C777.574158,1331.604858 771.486023,1330.572388 764.986328,1331.575806 
	C750.499146,1333.812134 741.221008,1345.458740 741.959412,1360.622070 
	C742.657104,1374.948242 753.139099,1385.491211 767.531433,1386.343140 
	C782.738953,1387.243286 791.651123,1381.002563 794.660767,1366.407227 
	C786.008423,1366.024536 777.451477,1365.646118 767.467163,1365.204590 
	C773.377441,1360.205566 781.190186,1359.578125 799.343445,1361.507812 
	C802.175049,1370.136719 798.500549,1377.022339 792.767578,1382.934326 
	C781.121826,1394.943848 758.993530,1394.628174 746.447876,1382.579834 
	C733.518311,1370.162842 733.248718,1348.567871 745.863159,1335.759399 
	C758.370728,1323.059448 779.312500,1322.654785 791.865173,1334.925415 
	C793.279358,1336.307861 794.793640,1337.830078 795.505676,1339.592651 
	C795.896423,1340.560059 794.707214,1342.165649 794.026855,1344.046143 
	C790.422791,1340.840820 787.505188,1338.245972 783.961548,1335.187500 
z"/>
<path fill="#EE553C" opacity="1.000000" stroke="none" 
	d="
M1415.816895,585.301758 
	C1416.471802,580.097107 1417.815796,575.586121 1417.893555,571.053467 
	C1418.160400,555.506775 1417.983398,539.952454 1417.973145,523.502441 
	C1422.717896,522.494629 1427.464966,522.385437 1433.084961,522.447021 
	C1433.967163,547.858704 1434.054810,573.099976 1433.908447,598.340027 
	C1433.883911,602.560852 1432.844116,606.775696 1431.760498,611.692017 
	C1426.140381,603.588867 1421.033081,594.787170 1415.816895,585.301758 
z"/>
<path fill="#D0766E" opacity="1.000000" stroke="none" 
	d="
M1772.838623,1332.011963 
	C1772.824829,1351.152710 1772.801514,1369.481934 1772.733643,1387.811035 
	C1772.731445,1388.412964 1772.278931,1389.013184 1771.962769,1389.796143 
	C1768.107788,1391.498779 1766.801392,1388.346802 1765.177002,1385.988770 
	C1756.483643,1373.368286 1747.851318,1360.705688 1739.143677,1348.095093 
	C1737.354126,1345.503296 1735.333862,1343.070557 1731.621826,1341.070679 
	C1731.621826,1347.902100 1731.623657,1354.733643 1731.621460,1361.565063 
	C1731.618896,1369.563599 1731.570312,1377.562500 1731.629150,1385.560547 
	C1731.652954,1388.789551 1730.794312,1390.799194 1726.494263,1389.629395 
	C1726.494263,1369.250977 1726.494263,1348.748291 1726.494263,1328.285156 
	C1731.217163,1325.925171 1732.463257,1329.791626 1734.229614,1332.334839 
	C1743.161499,1345.195435 1752.002808,1358.118896 1760.899658,1371.004028 
	C1762.394287,1373.168823 1764.003906,1375.254272 1766.185059,1378.227905 
	C1769.168091,1372.223999 1767.440674,1366.676880 1767.748047,1361.421021 
	C1768.078369,1355.774658 1767.822754,1350.094116 1767.822754,1344.428467 
	C1767.822754,1338.892212 1767.822754,1333.355957 1767.822754,1327.819580 
	C1768.478638,1327.639282 1769.134521,1327.458862 1769.790405,1327.278442 
	C1770.801025,1328.585815 1771.811523,1329.893188 1772.838623,1332.011963 
z"/>
<path fill="#D0766E" opacity="1.000000" stroke="none" 
	d="
M1128.354492,1390.089844 
	C1110.122681,1384.143799 1101.411865,1364.349731 1107.554565,1347.763184 
	C1113.607666,1331.418091 1130.403809,1322.604980 1146.926514,1327.254761 
	C1164.478760,1332.194336 1174.374390,1349.037598 1170.183960,1366.841064 
	C1166.327148,1383.227173 1150.037720,1393.926147 1133.010742,1391.228638 
	C1131.699463,1391.020996 1130.421021,1390.606934 1128.354492,1390.089844 
M1112.597412,1369.065430 
	C1114.128906,1371.620483 1115.384155,1374.399292 1117.240356,1376.691406 
	C1124.972046,1386.238647 1138.477173,1389.249268 1149.782959,1384.162231 
	C1161.022949,1379.104858 1167.443359,1367.265625 1165.718018,1354.777954 
	C1164.065552,1342.818726 1154.853638,1333.464844 1142.900757,1331.609253 
	C1122.123169,1328.383789 1107.523804,1345.385376 1112.597412,1369.065430 
z"/>
<path fill="#D0766E" opacity="1.000000" stroke="none" 
	d="
M1389.608887,1387.947632 
	C1371.470337,1397.323486 1350.599976,1387.896362 1343.964355,1371.291016 
	C1337.952881,1356.247559 1343.849121,1338.544067 1357.791748,1330.453735 
	C1372.292969,1322.039307 1390.654419,1325.809937 1400.719604,1339.269165 
	C1410.447388,1352.276733 1409.069092,1370.798462 1397.391724,1382.156738 
	C1395.264893,1384.225342 1392.672729,1385.815674 1389.608887,1387.947632 
M1354.445679,1339.543945 
	C1352.778198,1342.012573 1350.772339,1344.319580 1349.501099,1346.977661 
	C1343.823730,1358.850708 1347.322998,1373.116943 1357.640991,1381.026978 
	C1367.781982,1388.801392 1383.071045,1388.248291 1392.682373,1379.759521 
	C1402.410156,1371.167847 1404.792114,1356.710327 1398.382446,1345.160767 
	C1389.838623,1329.765625 1371.445801,1326.887939 1354.445679,1339.543945 
z"/>
<path fill="#D0766E" opacity="1.000000" stroke="none" 
	d="
M1675.251953,1391.551514 
	C1655.470825,1391.476929 1642.910889,1382.098511 1639.348389,1365.488525 
	C1635.664673,1348.313354 1645.870972,1331.866699 1663.137695,1327.154297 
	C1679.572754,1322.668945 1696.617188,1331.757324 1702.328003,1348.051270 
	C1708.009033,1364.259888 1700.362549,1382.009521 1684.646362,1388.791870 
	C1681.920166,1389.968384 1678.942261,1390.561646 1675.251953,1391.551514 
M1696.484741,1370.394531 
	C1697.190186,1367.847412 1698.170410,1365.341309 1698.556274,1362.746582 
	C1700.924316,1346.821655 1689.882202,1332.791260 1673.951782,1331.320435 
	C1657.944092,1329.842651 1644.447510,1341.663574 1643.917236,1357.625977 
	C1643.370972,1374.070435 1655.246338,1386.426636 1671.491211,1386.404175 
	C1682.522217,1386.388794 1690.468018,1381.312012 1696.484741,1370.394531 
z"/>
<path fill="#EF5C41" opacity="1.000000" stroke="none" 
	d="
M1425.503906,764.495667 
	C1426.683350,768.603638 1427.866699,773.138184 1427.909058,777.683350 
	C1428.109619,799.182861 1427.998535,820.685364 1427.997070,843.128662 
	C1423.233887,844.210327 1418.472046,844.349976 1412.843506,843.332275 
	C1411.974121,830.233887 1412.010864,818.292603 1411.946167,806.351929 
	C1411.924927,802.441895 1412.580444,798.167786 1407.944824,795.995850 
	C1413.624023,785.639587 1419.303101,775.283325 1425.503906,764.495667 
z"/>
<path fill="#D0766E" opacity="1.000000" stroke="none" 
	d="
M981.034668,1368.434326 
	C985.260559,1375.624146 989.081482,1382.179443 992.953308,1388.822021 
	C989.731445,1391.709106 987.850708,1390.028320 986.380554,1387.601074 
	C983.287109,1382.493164 980.007141,1377.456177 977.427307,1372.090454 
	C974.633850,1366.280151 970.795593,1363.384155 964.142456,1364.450684 
	C961.247375,1364.914673 958.216064,1364.528564 954.694702,1364.528564 
	C953.789429,1373.244751 952.950562,1381.513184 951.953308,1389.762451 
	C951.929504,1389.959106 950.134033,1389.941772 948.748230,1390.059570 
	C948.481201,1388.748047 948.013794,1387.514282 948.010803,1386.279419 
	C947.964661,1367.051514 947.978577,1347.823608 947.978577,1327.761963 
	C958.379761,1327.761963 968.274780,1326.998535 977.985657,1328.007324 
	C985.552185,1328.793457 990.102112,1334.716797 991.741760,1342.048340 
	C993.405945,1349.490112 990.699097,1355.667114 984.960510,1360.685303 
	C982.850952,1362.530029 977.838623,1362.883423 981.034668,1368.434326 
M982.931763,1355.743408 
	C989.810669,1344.285034 986.300354,1333.553711 974.848938,1332.300049 
	C968.079651,1331.559204 961.162964,1332.164673 954.166260,1332.164673 
	C954.166260,1341.850830 954.166260,1350.336426 954.166260,1358.720703 
	C967.516785,1360.869629 974.144958,1360.383423 982.931763,1355.743408 
z"/>
<path fill="#D0766E" opacity="1.000000" stroke="none" 
	d="
M1482.133789,1350.056152 
	C1482.169434,1342.766846 1482.185791,1336.453613 1482.272095,1330.141357 
	C1482.280273,1329.546143 1482.728638,1328.956909 1483.019409,1328.251099 
	C1485.845581,1326.825439 1487.450684,1327.949463 1487.529907,1330.934814 
	C1487.697510,1337.244995 1487.610718,1343.562012 1487.620605,1349.876221 
	C1487.629883,1355.858276 1487.855225,1361.850220 1487.590088,1367.820312 
	C1486.862061,1384.213745 1500.211182,1389.306396 1513.583374,1385.169189 
	C1520.696777,1382.968384 1523.708374,1376.909424 1523.774780,1369.601196 
	C1523.874512,1358.635010 1523.777832,1347.667236 1523.845703,1336.700562 
	C1523.864868,1333.608398 1524.166992,1330.517944 1524.339478,1327.426758 
	C1525.101440,1327.356934 1525.863281,1327.287109 1526.625244,1327.217285 
	C1527.364136,1328.733887 1528.725952,1330.243164 1528.744141,1331.768555 
	C1528.898682,1344.727051 1529.149292,1357.700317 1528.694824,1370.645508 
	C1528.251221,1383.274902 1519.666260,1391.176514 1506.762451,1391.816772 
	C1493.789062,1392.460693 1483.666748,1384.514526 1482.403809,1371.952881 
	C1481.708862,1365.040283 1482.185425,1358.009766 1482.133789,1350.056152 
z"/>
<path fill="#D0766E" opacity="1.000000" stroke="none" 
	d="
M1291.490967,1389.042969 
	C1287.820068,1385.686890 1284.610352,1382.867798 1281.932373,1379.611450 
	C1281.283325,1378.822388 1282.388550,1376.590820 1282.827637,1374.284546 
	C1293.081787,1385.525635 1297.202637,1387.455811 1307.184692,1386.226074 
	C1313.950928,1385.392456 1318.257690,1381.798828 1319.215210,1376.187256 
	C1320.088501,1371.069092 1317.568359,1366.833984 1311.141724,1363.967285 
	C1305.999146,1361.673218 1300.504517,1360.181763 1295.283081,1358.048218 
	C1285.305176,1353.970947 1281.988525,1348.708496 1283.508545,1339.911133 
	C1284.900391,1331.854492 1292.226196,1326.178589 1301.734131,1326.022217 
	C1309.988037,1325.886475 1316.646362,1329.138794 1321.005859,1336.256958 
	C1321.673340,1337.346802 1320.879272,1339.331543 1320.625244,1342.711060 
	C1317.825684,1339.602051 1316.356689,1337.977539 1314.895264,1336.346313 
	C1311.277100,1332.307495 1306.557861,1331.020264 1301.387939,1331.216675 
	C1294.352783,1331.484009 1289.246460,1335.598389 1288.417603,1341.398560 
	C1287.678589,1346.568604 1290.314819,1350.514771 1296.925781,1353.302979 
	C1302.427979,1355.623657 1308.231567,1357.250977 1313.664795,1359.709229 
	C1322.085083,1363.518555 1324.976440,1368.186401 1324.416870,1375.771851 
	C1323.854980,1383.388672 1319.215576,1388.291992 1310.683228,1390.797607 
	C1304.268555,1392.681274 1298.192017,1391.667725 1291.490967,1389.042969 
z"/>
<path fill="#D0766E" opacity="1.000000" stroke="none" 
	d="
M1819.492188,1356.732910 
	C1823.802734,1358.705444 1827.734497,1359.903931 1830.962524,1362.125000 
	C1839.835815,1368.229980 1840.093018,1379.995361 1831.826172,1386.897949 
	C1821.578491,1395.454102 1802.531616,1392.485962 1795.656006,1381.104004 
	C1794.746460,1379.598511 1794.923950,1377.436401 1794.598022,1375.578369 
	C1795.258789,1375.287842 1795.919434,1374.997314 1796.580200,1374.706787 
	C1797.587769,1375.747681 1798.824341,1376.647461 1799.566284,1377.851929 
	C1805.030762,1386.723145 1813.462036,1387.291382 1822.393311,1385.837524 
	C1828.070068,1384.913452 1831.416382,1381.014160 1832.037598,1375.902222 
	C1832.689819,1370.536865 1830.245239,1366.920776 1825.655884,1364.623291 
	C1823.289917,1363.438721 1820.761597,1362.567017 1818.275757,1361.636353 
	C1815.165894,1360.472168 1811.979980,1359.502075 1808.904419,1358.256592 
	C1798.588257,1354.078857 1794.457031,1347.906128 1796.316406,1339.638062 
	C1798.246948,1331.053589 1806.927734,1325.247559 1816.956909,1326.059692 
	C1824.339844,1326.657593 1830.361816,1329.845337 1834.119629,1336.430176 
	C1834.717285,1337.477295 1834.203491,1339.158691 1834.203491,1342.697266 
	C1831.090088,1339.585327 1829.378052,1337.880249 1827.672607,1336.168457 
	C1822.378052,1330.854736 1816.032837,1330.118164 1809.239136,1332.265137 
	C1804.736572,1333.688232 1802.080322,1336.933350 1801.603638,1341.757935 
	C1801.118042,1346.671021 1803.227905,1350.194824 1807.641235,1352.156128 
	C1811.273315,1353.770264 1815.068970,1355.016235 1819.492188,1356.732910 
z"/>
<path fill="#D0766E" opacity="1.000000" stroke="none" 
	d="
M1053.701416,1372.602417 
	C1051.835938,1384.990601 1047.732422,1389.454346 1037.218750,1391.404907 
	C1026.888794,1393.321411 1015.829346,1388.680054 1011.211670,1380.585083 
	C1009.859253,1378.214111 1009.403931,1376.258179 1013.155762,1374.864258 
	C1018.115967,1383.667603 1025.799316,1387.650024 1036.109375,1386.258301 
	C1043.014404,1385.326538 1047.231201,1381.874390 1048.000610,1376.228394 
	C1048.788086,1370.449585 1046.774780,1366.913452 1040.131714,1363.956299 
	C1034.987671,1361.666382 1029.499268,1360.162842 1024.280884,1358.024170 
	C1014.622681,1354.066284 1010.630371,1347.917725 1012.241394,1339.962158 
	C1013.862122,1331.958862 1021.328125,1326.291992 1030.629028,1326.005493 
	C1040.562500,1325.699341 1047.641968,1330.584473 1051.263184,1341.951172 
	C1048.246826,1339.969604 1046.333984,1339.263672 1045.240845,1337.900513 
	C1040.270630,1331.703369 1033.936523,1330.096802 1026.518555,1331.884277 
	C1021.524048,1333.087646 1018.337952,1336.163818 1017.647644,1341.419434 
	C1016.941467,1346.796021 1019.406738,1350.468750 1024.221069,1352.458130 
	C1029.433350,1354.611938 1034.825439,1356.327148 1040.058716,1358.433594 
	C1046.405640,1360.988281 1052.023193,1364.402954 1053.701416,1372.602417 
z"/>
<path fill="#D0766E" opacity="1.000000" stroke="none" 
	d="
M890.948730,1348.568604 
	C893.313110,1342.610229 895.169495,1337.271729 897.482056,1332.138672 
	C898.321716,1330.274902 900.250366,1328.901611 901.682129,1327.304565 
	C903.244080,1328.719727 905.552673,1329.837402 906.253174,1331.595703 
	C913.849976,1350.664673 921.194458,1369.833984 928.688904,1389.185669 
	C925.150513,1389.228394 924.397766,1388.296875 916.577087,1374.910400 
	C906.941284,1374.910400 897.080383,1374.910400 887.610718,1374.910400 
	C882.121094,1379.000732 884.237549,1387.960571 876.411865,1390.047852 
	C879.690063,1375.846191 885.761230,1362.765869 890.948730,1348.568604 
M904.654602,1340.744019 
	C903.734924,1339.325928 902.815247,1337.907837 901.368652,1335.677246 
	C898.836609,1342.062134 896.671326,1347.244629 894.724670,1352.508057 
	C892.718262,1357.932983 890.924805,1363.436768 888.993958,1369.034180 
	C898.245667,1369.034180 906.264648,1369.034180 915.352539,1369.034180 
	C911.733032,1359.343506 908.511597,1350.718750 904.654602,1340.744019 
z"/>
<path fill="#F06E50" opacity="1.000000" stroke="none" 
	d="
M1407.416748,796.409119 
	C1412.580444,798.167786 1411.924927,802.441895 1411.946167,806.351929 
	C1412.010864,818.292603 1411.974121,830.233887 1411.974121,843.115845 
	C1401.796143,844.056763 1391.620972,844.056763 1380.028076,844.056763 
	C1389.349731,827.664551 1398.119141,812.243530 1407.416748,796.409119 
z"/>
<path fill="#D0766E" opacity="1.000000" stroke="none" 
	d="
M822.381348,1329.210693 
	C834.696228,1325.919800 852.947021,1326.620483 858.701599,1330.156982 
	C853.907471,1333.439941 848.882874,1331.676270 844.271545,1331.967529 
	C839.317139,1332.280518 834.327637,1332.038086 828.489014,1332.038086 
	C828.489014,1339.881348 828.489014,1347.285278 828.489014,1355.230713 
	C837.320007,1357.493530 847.037903,1354.188721 855.915222,1358.449341 
	C847.225037,1362.436157 837.895020,1359.586426 828.370728,1361.579346 
	C828.370728,1369.238037 828.370728,1376.999878 828.370728,1385.265747 
	C838.484863,1386.757080 848.670288,1384.872803 860.199402,1386.672119 
	C853.474548,1391.099121 839.112000,1391.829956 822.085083,1389.557129 
	C822.085083,1369.830444 822.085083,1349.950317 822.381348,1329.210693 
z"/>
<path fill="#D0766E" opacity="1.000000" stroke="none" 
	d="
M1193.137939,1377.308838 
	C1193.137939,1360.485718 1193.137939,1344.568481 1193.137939,1328.927979 
	C1204.225830,1325.954712 1223.016235,1326.527588 1228.841309,1330.133179 
	C1224.109863,1333.492188 1219.079712,1331.661255 1214.477417,1331.964600 
	C1209.536621,1332.290405 1204.557739,1332.038086 1198.979736,1332.038086 
	C1198.979736,1340.204956 1198.979736,1347.698730 1198.979736,1355.496582 
	C1207.911133,1359.247803 1218.308838,1354.035889 1229.315308,1359.478760 
	C1218.245117,1364.091797 1208.446045,1360.139282 1198.240234,1362.885254 
	C1198.240234,1371.704712 1198.240234,1380.812988 1198.240234,1390.363892 
	C1193.152832,1388.094116 1193.152832,1388.094116 1193.137939,1377.308838 
z"/>
<path fill="#D0766E" opacity="1.000000" stroke="none" 
	d="
M1569.992432,1327.145996 
	C1577.993652,1327.398926 1585.142456,1326.531738 1594.246094,1328.225830 
	C1586.614990,1334.490479 1579.551514,1330.256104 1572.527832,1333.323242 
	C1572.527832,1351.749878 1572.527832,1370.847290 1572.527832,1389.682251 
	C1566.689575,1390.928589 1567.535767,1387.422729 1567.519775,1385.039551 
	C1567.428589,1371.403076 1567.471313,1357.765747 1567.469116,1344.128784 
	C1567.468506,1340.496460 1567.469116,1336.864258 1567.469116,1332.586060 
	C1560.547485,1332.181885 1554.234253,1331.813232 1546.609497,1331.368042 
	C1551.572754,1327.145142 1551.572754,1327.145142 1569.992432,1327.145996 
z"/>
<path fill="#D0766E" opacity="1.000000" stroke="none" 
	d="
M1434.358154,1359.972534 
	C1434.358154,1368.865967 1434.358154,1376.767212 1434.358154,1385.829834 
	C1440.170898,1385.829834 1445.062378,1385.649170 1449.933960,1385.882202 
	C1454.550049,1386.103027 1459.503784,1384.715698 1463.696777,1388.486084 
	C1452.544434,1391.403442 1441.331055,1390.229980 1430.076050,1390.401367 
	C1430.076050,1369.166016 1430.066406,1348.694092 1430.187378,1328.222778 
	C1430.188843,1327.970459 1431.865967,1327.728027 1434.135864,1327.101562 
	C1434.212402,1338.086914 1434.285278,1348.533691 1434.358154,1359.972534 
z"/>
<path fill="#D0766E" opacity="1.000000" stroke="none" 
	d="
M1617.620850,1335.135010 
	C1617.619629,1352.220825 1617.615234,1368.430542 1617.618530,1384.640381 
	C1617.619141,1387.735107 1617.795288,1390.960693 1612.556885,1389.662354 
	C1612.556885,1369.119019 1612.556885,1348.501953 1612.556885,1327.885986 
	C1618.923706,1327.012329 1617.241943,1331.357300 1617.620850,1335.135010 
z"/>
<path fill="#030001" opacity="1.000000" stroke="none" 
	d="
M1117.487549,1145.627808 
	C1126.730957,1135.634033 1137.778564,1131.421143 1150.359131,1132.573853 
	C1166.242676,1134.029175 1178.282104,1141.955811 1183.555664,1157.423218 
	C1189.129395,1173.771729 1186.995605,1189.310913 1173.973877,1201.637573 
	C1161.907715,1213.059814 1147.306152,1214.879761 1132.102539,1209.154785 
	C1110.774902,1201.123657 1101.682495,1174.217651 1112.668457,1152.884155 
	C1113.880859,1150.529663 1115.548950,1148.409790 1117.487549,1145.627808 
z"/>
<path fill="#030001" opacity="1.000000" stroke="none" 
	d="
M1467.875854,1152.455322 
	C1476.821045,1137.411499 1489.892700,1131.142090 1506.108032,1132.689819 
	C1521.965942,1134.203369 1533.769897,1142.555176 1538.819702,1158.112671 
	C1543.898682,1173.760132 1541.894653,1188.675659 1529.922607,1200.751099 
	C1518.214600,1212.560059 1503.735229,1214.783447 1488.336670,1209.631836 
	C1468.998047,1203.161621 1458.953491,1181.909790 1464.679810,1160.590942 
	C1465.365845,1158.036743 1466.569824,1155.621704 1467.875854,1152.455322 
z"/>
<path fill="#030001" opacity="1.000000" stroke="none" 
	d="
M1661.391113,1166.377808 
	C1651.586914,1169.351807 1642.471436,1168.065430 1632.689941,1167.607056 
	C1632.689941,1156.654785 1632.689941,1146.226318 1632.689941,1134.653320 
	C1641.029297,1133.547852 1649.606567,1133.139038 1657.905518,1134.622070 
	C1668.099365,1136.443726 1673.149048,1149.592041 1667.901367,1159.387329 
	C1666.555786,1161.898926 1664.079712,1163.804810 1661.391113,1166.377808 
z"/>
<path fill="#030001" opacity="1.000000" stroke="none" 
	d="
M1112.361816,1368.256470 
	C1107.523804,1345.385376 1122.123169,1328.383789 1142.900757,1331.609253 
	C1154.853638,1333.464844 1164.065552,1342.818726 1165.718018,1354.777954 
	C1167.443359,1367.265625 1161.022949,1379.104858 1149.782959,1384.162231 
	C1138.477173,1389.249268 1124.972046,1386.238647 1117.240356,1376.691406 
	C1115.384155,1374.399292 1114.128906,1371.620483 1112.361816,1368.256470 
z"/>
<path fill="#030001" opacity="1.000000" stroke="none" 
	d="
M1354.989990,1339.000366 
	C1371.445801,1326.887939 1389.838623,1329.765625 1398.382446,1345.160767 
	C1404.792114,1356.710327 1402.410156,1371.167847 1392.682373,1379.759521 
	C1383.071045,1388.248291 1367.781982,1388.801392 1357.640991,1381.026978 
	C1347.322998,1373.116943 1343.823730,1358.850708 1349.501099,1346.977661 
	C1350.772339,1344.319580 1352.778198,1342.012573 1354.989990,1339.000366 
z"/>
<path fill="#030001" opacity="1.000000" stroke="none" 
	d="
M1696.159668,1371.129639 
	C1690.468018,1381.312012 1682.522217,1386.388794 1671.491211,1386.404175 
	C1655.246338,1386.426636 1643.370972,1374.070435 1643.917236,1357.625977 
	C1644.447510,1341.663574 1657.944092,1329.842651 1673.951782,1331.320435 
	C1689.882202,1332.791260 1700.924316,1346.821655 1698.556274,1362.746582 
	C1698.170410,1365.341309 1697.190186,1367.847412 1696.159668,1371.129639 
z"/>
<path fill="#030001" opacity="1.000000" stroke="none" 
	d="
M982.302429,1356.288818 
	C974.144958,1360.383423 967.516785,1360.869629 954.166260,1358.720703 
	C954.166260,1350.336426 954.166260,1341.850830 954.166260,1332.164673 
	C961.162964,1332.164673 968.079651,1331.559204 974.848938,1332.300049 
	C986.300354,1333.553711 989.810669,1344.285034 982.302429,1356.288818 
z"/>
<path fill="#030001" opacity="1.000000" stroke="none" 
	d="
M904.972412,1341.418945 
	C908.511597,1350.718750 911.733032,1359.343506 915.352539,1369.034180 
	C906.264648,1369.034180 898.245667,1369.034180 888.993958,1369.034180 
	C890.924805,1363.436768 892.718262,1357.932983 894.724670,1352.508057 
	C896.671326,1347.244629 898.836609,1342.062134 901.368652,1335.677246 
	C902.815247,1337.907837 903.734924,1339.325928 904.972412,1341.418945 
z"/>
</svg>